G04 #@! TF.GenerationSoftware,KiCad,Pcbnew,7.0.10*
G04 #@! TF.CreationDate,2024-06-08T12:41:12+01:00*
G04 #@! TF.ProjectId,hexpansion,68657870-616e-4736-996f-6e2e6b696361,rev?*
G04 #@! TF.SameCoordinates,Original*
G04 #@! TF.FileFunction,Profile,NP*
%FSLAX46Y46*%
G04 Gerber Fmt 4.6, Leading zero omitted, Abs format (unit mm)*
G04 Created by KiCad (PCBNEW 7.0.10) date 2024-06-08 12:41:12*
%MOMM*%
%LPD*%
G01*
G04 APERTURE LIST*
G04 #@! TA.AperFunction,Profile*
%ADD10C,0.050000*%
G04 #@! TD*
G04 #@! TA.AperFunction,Profile*
%ADD11C,0.100000*%
G04 #@! TD*
G04 APERTURE END LIST*
D10*
X100500000Y-90473725D02*
X115499995Y-81813472D01*
X131999950Y-91339750D02*
G75*
G03*
X131499989Y-90473726I-999950J50D01*
G01*
D11*
X100000000Y-93750000D02*
G75*
G03*
X100250000Y-94000000I250000J0D01*
G01*
D10*
X116499995Y-81813472D02*
G75*
G03*
X115499995Y-81813472I-500000J-866022D01*
G01*
X100500000Y-109526269D02*
X115499995Y-118186522D01*
X131999989Y-91339750D02*
X131999989Y-108660243D01*
X100000000Y-93750000D02*
X100000000Y-91339750D01*
X100500021Y-90473762D02*
G75*
G03*
X100000000Y-91339750I499979J-866038D01*
G01*
X100000000Y-106250000D02*
X100000000Y-108660243D01*
X116499995Y-81813472D02*
X131499989Y-90473725D01*
D11*
X100250000Y-106000000D02*
G75*
G03*
X100000000Y-106250000I0J-250000D01*
G01*
D10*
X99999963Y-108660243D02*
G75*
G03*
X100500000Y-109526268I1000037J43D01*
G01*
X131499967Y-109526232D02*
G75*
G03*
X131999989Y-108660243I-499967J866032D01*
G01*
X115499995Y-118186522D02*
G75*
G03*
X116499995Y-118186522I500000J866022D01*
G01*
X116499995Y-118186522D02*
X131499989Y-109526269D01*
X98250000Y-104400000D02*
X98250000Y-95600000D01*
X104500000Y-94000000D02*
X100250000Y-94000000D01*
X104500000Y-95400000D02*
X98450000Y-95400000D01*
X104500000Y-104600000D02*
X98450000Y-104600000D01*
X104500000Y-106000000D02*
X100250000Y-106000000D01*
X98450000Y-95400000D02*
G75*
G03*
X98250000Y-95600000I0J-200000D01*
G01*
X98250000Y-104400000D02*
G75*
G03*
X98450000Y-104600000I200000J0D01*
G01*
X105200000Y-94700000D02*
G75*
G03*
X104500000Y-94000000I-700000J0D01*
G01*
X105200000Y-105300000D02*
G75*
G03*
X104500000Y-104600000I-700000J0D01*
G01*
X104500000Y-95400000D02*
G75*
G03*
X105200000Y-94700000I0J700000D01*
G01*
X104500000Y-106000000D02*
G75*
G03*
X105200000Y-105300000I0J700000D01*
G01*
M02*
