G04 #@! TF.GenerationSoftware,KiCad,Pcbnew,7.0.10*
G04 #@! TF.CreationDate,2024-06-08T12:41:12+01:00*
G04 #@! TF.ProjectId,hexpansion,68657870-616e-4736-996f-6e2e6b696361,rev?*
G04 #@! TF.SameCoordinates,Original*
G04 #@! TF.FileFunction,Copper,L1,Top*
G04 #@! TF.FilePolarity,Positive*
%FSLAX46Y46*%
G04 Gerber Fmt 4.6, Leading zero omitted, Abs format (unit mm)*
G04 Created by KiCad (PCBNEW 7.0.10) date 2024-06-08 12:41:12*
%MOMM*%
%LPD*%
G01*
G04 APERTURE LIST*
G04 Aperture macros list*
%AMRoundRect*
0 Rectangle with rounded corners*
0 $1 Rounding radius*
0 $2 $3 $4 $5 $6 $7 $8 $9 X,Y pos of 4 corners*
0 Add a 4 corners polygon primitive as box body*
4,1,4,$2,$3,$4,$5,$6,$7,$8,$9,$2,$3,0*
0 Add four circle primitives for the rounded corners*
1,1,$1+$1,$2,$3*
1,1,$1+$1,$4,$5*
1,1,$1+$1,$6,$7*
1,1,$1+$1,$8,$9*
0 Add four rect primitives between the rounded corners*
20,1,$1+$1,$2,$3,$4,$5,0*
20,1,$1+$1,$4,$5,$6,$7,0*
20,1,$1+$1,$6,$7,$8,$9,0*
20,1,$1+$1,$8,$9,$2,$3,0*%
%AMFreePoly0*
4,1,19,0.500000,-0.750000,0.000000,-0.750000,0.000000,-0.744911,-0.071157,-0.744911,-0.207708,-0.704816,-0.327430,-0.627875,-0.420627,-0.520320,-0.479746,-0.390866,-0.500000,-0.250000,-0.500000,0.250000,-0.479746,0.390866,-0.420627,0.520320,-0.327430,0.627875,-0.207708,0.704816,-0.071157,0.744911,0.000000,0.744911,0.000000,0.750000,0.500000,0.750000,0.500000,-0.750000,0.500000,-0.750000,
$1*%
%AMFreePoly1*
4,1,19,0.000000,0.744911,0.071157,0.744911,0.207708,0.704816,0.327430,0.627875,0.420627,0.520320,0.479746,0.390866,0.500000,0.250000,0.500000,-0.250000,0.479746,-0.390866,0.420627,-0.520320,0.327430,-0.627875,0.207708,-0.704816,0.071157,-0.744911,0.000000,-0.744911,0.000000,-0.750000,-0.500000,-0.750000,-0.500000,0.750000,0.000000,0.750000,0.000000,0.744911,0.000000,0.744911,
$1*%
G04 Aperture macros list end*
G04 #@! TA.AperFunction,SMDPad,CuDef*
%ADD10RoundRect,0.150000X1.600000X0.150000X-1.600000X0.150000X-1.600000X-0.150000X1.600000X-0.150000X0*%
G04 #@! TD*
G04 #@! TA.AperFunction,SMDPad,CuDef*
%ADD11RoundRect,0.150000X1.200000X0.150000X-1.200000X0.150000X-1.200000X-0.150000X1.200000X-0.150000X0*%
G04 #@! TD*
G04 #@! TA.AperFunction,SMDPad,CuDef*
%ADD12RoundRect,0.243750X-0.456250X0.243750X-0.456250X-0.243750X0.456250X-0.243750X0.456250X0.243750X0*%
G04 #@! TD*
G04 #@! TA.AperFunction,ComponentPad*
%ADD13C,0.700000*%
G04 #@! TD*
G04 #@! TA.AperFunction,ComponentPad*
%ADD14C,4.400000*%
G04 #@! TD*
G04 #@! TA.AperFunction,ComponentPad*
%ADD15R,1.700000X1.700000*%
G04 #@! TD*
G04 #@! TA.AperFunction,ComponentPad*
%ADD16O,1.700000X1.700000*%
G04 #@! TD*
G04 #@! TA.AperFunction,SMDPad,CuDef*
%ADD17FreePoly0,90.000000*%
G04 #@! TD*
G04 #@! TA.AperFunction,SMDPad,CuDef*
%ADD18FreePoly1,90.000000*%
G04 #@! TD*
G04 #@! TA.AperFunction,SMDPad,CuDef*
%ADD19RoundRect,0.200000X0.275000X-0.200000X0.275000X0.200000X-0.275000X0.200000X-0.275000X-0.200000X0*%
G04 #@! TD*
G04 #@! TA.AperFunction,ViaPad*
%ADD20C,0.800000*%
G04 #@! TD*
G04 #@! TA.AperFunction,Conductor*
%ADD21C,0.250000*%
G04 #@! TD*
G04 APERTURE END LIST*
G04 #@! TA.AperFunction,EtchedComponent*
G36*
X130790000Y-93940000D02*
G01*
X130190000Y-93940000D01*
X130190000Y-93440000D01*
X130790000Y-93440000D01*
X130790000Y-93940000D01*
G37*
G04 #@! TD.AperFunction*
D10*
X100500000Y-96600000D03*
D11*
X100900000Y-97400000D03*
X100900000Y-98200000D03*
D10*
X100500000Y-99000000D03*
D11*
X100900000Y-99800000D03*
X100900000Y-100600000D03*
D10*
X100500000Y-101400000D03*
D11*
X100900000Y-102200000D03*
X100900000Y-103000000D03*
D10*
X100500000Y-103800000D03*
D12*
X130550000Y-100352500D03*
X130550000Y-102227500D03*
D13*
X110850000Y-87500000D03*
X111333274Y-86333274D03*
X111333274Y-88666726D03*
X112500000Y-85850000D03*
D14*
X112500000Y-87500000D03*
D13*
X112500000Y-89150000D03*
X113666726Y-86333274D03*
X113666726Y-88666726D03*
X114150000Y-87500000D03*
D15*
X124230000Y-111410000D03*
D16*
X121690000Y-111410000D03*
X124230000Y-108870000D03*
X121690000Y-108870000D03*
X124230000Y-106330000D03*
X121690000Y-106330000D03*
X124230000Y-103790000D03*
X121690000Y-103790000D03*
X124230000Y-101250000D03*
X121690000Y-101250000D03*
X124230000Y-98710000D03*
X121690000Y-98710000D03*
X124230000Y-96170000D03*
X121690000Y-96170000D03*
X124230000Y-93630000D03*
X121690000Y-93630000D03*
X124230000Y-91090000D03*
X121690000Y-91090000D03*
X124230000Y-88550000D03*
X121690000Y-88550000D03*
D17*
X130490000Y-94340000D03*
D18*
X130490000Y-93040000D03*
D19*
X130590000Y-105505000D03*
X130590000Y-103855000D03*
D13*
X110850000Y-112500000D03*
X111333274Y-111333274D03*
X111333274Y-113666726D03*
X112500000Y-110850000D03*
D14*
X112500000Y-112500000D03*
D13*
X112500000Y-114150000D03*
X113666726Y-111333274D03*
X113666726Y-113666726D03*
X114150000Y-112500000D03*
D20*
X106250000Y-105500000D03*
X106250000Y-94250000D03*
X126010000Y-102990000D03*
D21*
X111990000Y-103800000D02*
X120320000Y-112130000D01*
X121690000Y-96170000D02*
X122865000Y-96170000D01*
X113640000Y-96600000D02*
X100500000Y-96600000D01*
X121690000Y-88550000D02*
X124230000Y-88550000D01*
X122865000Y-103890000D02*
X122865000Y-100070000D01*
X130267500Y-100070000D02*
X122865000Y-100070000D01*
X122865000Y-89725000D02*
X121690000Y-88550000D01*
X114716726Y-86666726D02*
X119806726Y-86666726D01*
X121690000Y-103790000D02*
X119300000Y-101400000D01*
X130550000Y-100352500D02*
X130267500Y-100070000D01*
X113550000Y-114500000D02*
X118600000Y-114500000D01*
X119806726Y-86666726D02*
X121690000Y-88550000D01*
X130490000Y-93040000D02*
X128720000Y-93040000D01*
X118860000Y-99000000D02*
X100500000Y-99000000D01*
X122865000Y-100070000D02*
X122865000Y-96170000D01*
X121690000Y-103790000D02*
X122765000Y-103790000D01*
X120970000Y-112130000D02*
X121690000Y-111410000D01*
X121690000Y-96170000D02*
X118860000Y-99000000D01*
X122865000Y-96170000D02*
X122865000Y-89725000D01*
X118600000Y-114500000D02*
X121690000Y-111410000D01*
X121690000Y-88550000D02*
X113640000Y-96600000D01*
X122765000Y-103790000D02*
X122865000Y-103890000D01*
X100500000Y-103800000D02*
X111990000Y-103800000D01*
X119300000Y-101400000D02*
X100500000Y-101400000D01*
X121690000Y-111410000D02*
X124230000Y-111410000D01*
X128720000Y-93040000D02*
X124230000Y-88550000D01*
X124230000Y-111410000D02*
X122865000Y-110045000D01*
X120320000Y-112130000D02*
X120970000Y-112130000D01*
X122865000Y-110045000D02*
X122865000Y-103890000D01*
X115380000Y-97400000D02*
X100900000Y-97400000D01*
X121690000Y-91090000D02*
X115380000Y-97400000D01*
X117120000Y-98200000D02*
X100900000Y-98200000D01*
X121690000Y-93630000D02*
X117120000Y-98200000D01*
X120600000Y-99800000D02*
X100900000Y-99800000D01*
X100900000Y-99800000D02*
X100900000Y-100600000D01*
X121690000Y-101250000D02*
X121690000Y-98710000D01*
X126010000Y-103315000D02*
X128200000Y-105505000D01*
X121690000Y-98710000D02*
X120600000Y-99800000D01*
X126010000Y-102990000D02*
X126010000Y-103315000D01*
X128200000Y-105505000D02*
X130590000Y-105505000D01*
X121040000Y-100600000D02*
X121690000Y-101250000D01*
X100900000Y-100600000D02*
X121040000Y-100600000D01*
X121690000Y-106330000D02*
X120380000Y-106330000D01*
X116250000Y-102200000D02*
X100900000Y-102200000D01*
X120380000Y-106330000D02*
X116250000Y-102200000D01*
X121690000Y-108870000D02*
X120280000Y-108870000D01*
X120280000Y-108870000D02*
X114410000Y-103000000D01*
X114410000Y-103000000D02*
X100900000Y-103000000D01*
X130590000Y-103855000D02*
X130550000Y-103815000D01*
X130550000Y-103815000D02*
X130550000Y-102227500D01*
X128600000Y-94340000D02*
X130490000Y-94340000D01*
X124230000Y-98710000D02*
X128600000Y-94340000D01*
G04 #@! TA.AperFunction,Conductor*
G36*
X116062287Y-81685447D02*
G01*
X116130292Y-81691396D01*
X116145257Y-81693633D01*
X116251040Y-81716118D01*
X116257307Y-81717622D01*
X116316718Y-81733541D01*
X116335047Y-81740032D01*
X116401389Y-81769570D01*
X116472934Y-81801424D01*
X116474901Y-81802320D01*
X116484601Y-81806843D01*
X116494830Y-81811613D01*
X116494835Y-81811615D01*
X116504423Y-81816606D01*
X131470530Y-90457293D01*
X131470533Y-90457295D01*
X131495035Y-90471441D01*
X131504150Y-90477248D01*
X131522490Y-90490090D01*
X131524230Y-90491331D01*
X131645878Y-90579683D01*
X131660691Y-90592333D01*
X131704844Y-90636488D01*
X131709306Y-90641189D01*
X131780949Y-90720762D01*
X131790373Y-90732611D01*
X131829951Y-90789138D01*
X131835763Y-90798260D01*
X131886818Y-90886697D01*
X131891804Y-90896277D01*
X131920967Y-90958824D01*
X131926515Y-90972910D01*
X131959597Y-91074739D01*
X131961441Y-91080965D01*
X131977604Y-91141298D01*
X131981149Y-91160430D01*
X131996661Y-91308085D01*
X131996868Y-91310234D01*
X131999017Y-91334797D01*
X131999489Y-91345604D01*
X131999489Y-108654820D01*
X131999016Y-108665637D01*
X131997064Y-108687928D01*
X131996860Y-108690052D01*
X131981173Y-108839542D01*
X131977624Y-108858699D01*
X131961435Y-108919108D01*
X131959590Y-108925334D01*
X131926540Y-109027035D01*
X131920991Y-109041120D01*
X131891779Y-109103759D01*
X131886784Y-109113354D01*
X131835792Y-109201668D01*
X131829980Y-109210791D01*
X131790342Y-109267396D01*
X131780916Y-109279244D01*
X131709350Y-109358721D01*
X131704879Y-109363432D01*
X131660634Y-109407672D01*
X131645841Y-109420306D01*
X131525982Y-109507384D01*
X131524223Y-109508639D01*
X131503742Y-109522980D01*
X131494618Y-109528792D01*
X116504426Y-118183384D01*
X116494827Y-118188381D01*
X116474903Y-118197671D01*
X116472938Y-118198566D01*
X116335051Y-118259958D01*
X116316708Y-118266454D01*
X116257329Y-118282364D01*
X116251017Y-118283879D01*
X116145262Y-118306358D01*
X116130291Y-118308596D01*
X116062287Y-118314547D01*
X116051477Y-118315019D01*
X115948512Y-118315019D01*
X115937703Y-118314547D01*
X115934081Y-118314230D01*
X115869698Y-118308596D01*
X115854727Y-118306358D01*
X115748971Y-118283879D01*
X115742659Y-118282364D01*
X115683280Y-118266454D01*
X115664937Y-118259958D01*
X115527054Y-118198568D01*
X115525087Y-118197672D01*
X115505155Y-118188378D01*
X115495558Y-118183382D01*
X105651654Y-112500000D01*
X109795065Y-112500000D01*
X109814786Y-112826038D01*
X109873667Y-113147341D01*
X109970835Y-113459164D01*
X109970839Y-113459175D01*
X110104897Y-113757041D01*
X110104898Y-113757043D01*
X110273881Y-114036576D01*
X110421476Y-114224968D01*
X110934069Y-113712375D01*
X111133274Y-113712375D01*
X111172887Y-113794631D01*
X111244266Y-113851553D01*
X111310742Y-113866726D01*
X111355806Y-113866726D01*
X111422282Y-113851553D01*
X111493661Y-113794631D01*
X111533274Y-113712375D01*
X111533274Y-113621077D01*
X111493661Y-113538821D01*
X111422282Y-113481899D01*
X111355806Y-113466726D01*
X111310742Y-113466726D01*
X111244266Y-113481899D01*
X111172887Y-113538821D01*
X111133274Y-113621077D01*
X111133274Y-113712375D01*
X110934069Y-113712375D01*
X111564210Y-113082234D01*
X111664894Y-113223624D01*
X111816932Y-113368592D01*
X111919222Y-113434330D01*
X110775030Y-114578522D01*
X110775030Y-114578523D01*
X110963423Y-114726118D01*
X111242956Y-114895101D01*
X111242958Y-114895102D01*
X111540824Y-115029160D01*
X111540835Y-115029164D01*
X111852658Y-115126332D01*
X112173961Y-115185213D01*
X112500000Y-115204934D01*
X112826038Y-115185213D01*
X113147341Y-115126332D01*
X113459164Y-115029164D01*
X113459175Y-115029160D01*
X113757041Y-114895102D01*
X113757043Y-114895101D01*
X114036586Y-114726112D01*
X114224968Y-114578523D01*
X114224968Y-114578522D01*
X113358822Y-113712375D01*
X113466726Y-113712375D01*
X113506339Y-113794631D01*
X113577718Y-113851553D01*
X113644194Y-113866726D01*
X113689258Y-113866726D01*
X113755734Y-113851553D01*
X113827113Y-113794631D01*
X113866726Y-113712375D01*
X113866726Y-113621077D01*
X113827113Y-113538821D01*
X113755734Y-113481899D01*
X113689258Y-113466726D01*
X113644194Y-113466726D01*
X113577718Y-113481899D01*
X113506339Y-113538821D01*
X113466726Y-113621077D01*
X113466726Y-113712375D01*
X113358822Y-113712375D01*
X113083306Y-113436859D01*
X113097410Y-113429589D01*
X113262540Y-113299729D01*
X113400110Y-113140965D01*
X113434665Y-113081112D01*
X114578522Y-114224968D01*
X114578523Y-114224968D01*
X114726112Y-114036586D01*
X114895101Y-113757043D01*
X114895102Y-113757041D01*
X115029160Y-113459175D01*
X115029164Y-113459164D01*
X115126332Y-113147341D01*
X115185213Y-112826038D01*
X115204934Y-112500000D01*
X115185213Y-112173961D01*
X115126332Y-111852658D01*
X115029164Y-111540835D01*
X115029160Y-111540824D01*
X114895102Y-111242958D01*
X114895101Y-111242956D01*
X114726118Y-110963423D01*
X114578522Y-110775030D01*
X113435788Y-111917764D01*
X113335106Y-111776376D01*
X113183068Y-111631408D01*
X113080776Y-111565669D01*
X113267522Y-111378923D01*
X113466726Y-111378923D01*
X113506339Y-111461179D01*
X113577718Y-111518101D01*
X113644194Y-111533274D01*
X113689258Y-111533274D01*
X113755734Y-111518101D01*
X113827113Y-111461179D01*
X113866726Y-111378923D01*
X113866726Y-111287625D01*
X113827113Y-111205369D01*
X113755734Y-111148447D01*
X113689258Y-111133274D01*
X113644194Y-111133274D01*
X113577718Y-111148447D01*
X113506339Y-111205369D01*
X113466726Y-111287625D01*
X113466726Y-111378923D01*
X113267522Y-111378923D01*
X114224968Y-110421476D01*
X114036576Y-110273881D01*
X113757043Y-110104898D01*
X113757041Y-110104897D01*
X113459175Y-109970839D01*
X113459164Y-109970835D01*
X113147341Y-109873667D01*
X112826038Y-109814786D01*
X112500000Y-109795065D01*
X112173961Y-109814786D01*
X111852658Y-109873667D01*
X111540835Y-109970835D01*
X111540824Y-109970839D01*
X111242958Y-110104897D01*
X111242956Y-110104898D01*
X110963422Y-110273881D01*
X110963416Y-110273886D01*
X110775030Y-110421474D01*
X110775029Y-110421476D01*
X111916693Y-111563140D01*
X111902590Y-111570411D01*
X111737460Y-111700271D01*
X111599890Y-111859035D01*
X111565334Y-111918887D01*
X111025370Y-111378923D01*
X111133274Y-111378923D01*
X111172887Y-111461179D01*
X111244266Y-111518101D01*
X111310742Y-111533274D01*
X111355806Y-111533274D01*
X111422282Y-111518101D01*
X111493661Y-111461179D01*
X111533274Y-111378923D01*
X111533274Y-111287625D01*
X111493661Y-111205369D01*
X111422282Y-111148447D01*
X111355806Y-111133274D01*
X111310742Y-111133274D01*
X111244266Y-111148447D01*
X111172887Y-111205369D01*
X111133274Y-111287625D01*
X111133274Y-111378923D01*
X111025370Y-111378923D01*
X110421476Y-110775029D01*
X110421474Y-110775030D01*
X110273886Y-110963416D01*
X110273881Y-110963422D01*
X110104898Y-111242956D01*
X110104897Y-111242958D01*
X109970839Y-111540824D01*
X109970835Y-111540835D01*
X109873667Y-111852658D01*
X109814786Y-112173961D01*
X109795065Y-112500000D01*
X105651654Y-112500000D01*
X100504941Y-109528543D01*
X100495820Y-109522732D01*
X100478003Y-109510257D01*
X100476223Y-109508988D01*
X100353764Y-109419987D01*
X100338986Y-109407363D01*
X100296161Y-109364540D01*
X100291693Y-109359832D01*
X100218662Y-109278728D01*
X100209242Y-109266886D01*
X100170497Y-109211556D01*
X100164689Y-109202440D01*
X100164243Y-109201668D01*
X100112778Y-109112534D01*
X100107786Y-109102944D01*
X100079239Y-109041730D01*
X100073690Y-109027645D01*
X100073492Y-109027035D01*
X100039958Y-108923842D01*
X100038131Y-108917675D01*
X100022446Y-108859148D01*
X100018905Y-108840047D01*
X100002860Y-108687448D01*
X100002677Y-108685550D01*
X100000972Y-108666064D01*
X100000500Y-108655258D01*
X100000500Y-106259757D01*
X100001974Y-106240697D01*
X100002023Y-106240382D01*
X100002910Y-106235367D01*
X100013674Y-106181251D01*
X100024796Y-106149180D01*
X100028969Y-106140991D01*
X100036319Y-106128453D01*
X100056271Y-106098592D01*
X100071678Y-106079819D01*
X100079819Y-106071678D01*
X100098592Y-106056271D01*
X100128453Y-106036319D01*
X100140991Y-106028969D01*
X100149180Y-106024796D01*
X100181251Y-106013674D01*
X100235367Y-106002910D01*
X100240366Y-106002025D01*
X100240483Y-106002007D01*
X100240697Y-106001974D01*
X100259757Y-106000500D01*
X104568995Y-106000500D01*
X104684269Y-105977570D01*
X104704328Y-105973580D01*
X104831811Y-105920775D01*
X104946542Y-105844114D01*
X105044114Y-105746542D01*
X105120775Y-105631811D01*
X105173580Y-105504328D01*
X105200500Y-105368993D01*
X105200500Y-105300000D01*
X105200500Y-105299500D01*
X105200500Y-105231007D01*
X105200500Y-105231004D01*
X105173581Y-105095677D01*
X105173580Y-105095676D01*
X105173580Y-105095672D01*
X105167998Y-105082195D01*
X105120778Y-104968195D01*
X105120771Y-104968182D01*
X105044114Y-104853458D01*
X105044111Y-104853454D01*
X104946545Y-104755888D01*
X104946541Y-104755885D01*
X104831817Y-104679228D01*
X104831804Y-104679221D01*
X104704332Y-104626421D01*
X104704322Y-104626418D01*
X104568995Y-104599500D01*
X104568993Y-104599500D01*
X104500099Y-104599500D01*
X104389801Y-104599500D01*
X104322762Y-104579815D01*
X104277007Y-104527011D01*
X104265804Y-104476362D01*
X104260757Y-103750362D01*
X104279975Y-103683187D01*
X104332460Y-103637066D01*
X104384754Y-103625500D01*
X114099548Y-103625500D01*
X114166587Y-103645185D01*
X114187229Y-103661819D01*
X119779194Y-109253784D01*
X119789019Y-109266048D01*
X119789240Y-109265866D01*
X119794210Y-109271874D01*
X119843239Y-109317915D01*
X119846036Y-109320626D01*
X119865530Y-109340120D01*
X119868695Y-109342575D01*
X119877571Y-109350156D01*
X119909418Y-109380062D01*
X119909422Y-109380064D01*
X119926973Y-109389713D01*
X119943231Y-109400392D01*
X119959064Y-109412674D01*
X119976702Y-109420306D01*
X119999155Y-109430022D01*
X120009635Y-109435155D01*
X120047908Y-109456197D01*
X120067312Y-109461179D01*
X120085710Y-109467478D01*
X120104105Y-109475438D01*
X120147254Y-109482271D01*
X120158680Y-109484638D01*
X120200981Y-109495500D01*
X120221016Y-109495500D01*
X120240413Y-109497026D01*
X120260196Y-109500160D01*
X120303675Y-109496050D01*
X120315344Y-109495500D01*
X120414773Y-109495500D01*
X120481812Y-109515185D01*
X120516348Y-109548377D01*
X120651501Y-109741396D01*
X120651506Y-109741402D01*
X120818597Y-109908493D01*
X120818603Y-109908498D01*
X121004594Y-110038730D01*
X121048219Y-110093307D01*
X121055413Y-110162805D01*
X121023890Y-110225160D01*
X121004595Y-110241880D01*
X120818922Y-110371890D01*
X120818920Y-110371891D01*
X120651891Y-110538920D01*
X120651886Y-110538926D01*
X120516400Y-110732420D01*
X120516399Y-110732422D01*
X120416570Y-110946507D01*
X120416567Y-110946513D01*
X120359364Y-111159999D01*
X120359364Y-111160000D01*
X121256314Y-111160000D01*
X121230507Y-111200156D01*
X121190000Y-111338111D01*
X121190000Y-111481889D01*
X121230507Y-111619844D01*
X121256314Y-111660000D01*
X120359364Y-111660000D01*
X120416567Y-111873486D01*
X120416570Y-111873492D01*
X120516399Y-112087578D01*
X120651894Y-112281082D01*
X120818917Y-112448105D01*
X121012421Y-112583600D01*
X121226507Y-112683429D01*
X121226516Y-112683433D01*
X121440000Y-112740634D01*
X121440000Y-111845501D01*
X121547685Y-111894680D01*
X121654237Y-111910000D01*
X121725763Y-111910000D01*
X121832315Y-111894680D01*
X121940000Y-111845501D01*
X121940000Y-112740633D01*
X122153483Y-112683433D01*
X122153492Y-112683429D01*
X122367578Y-112583600D01*
X122561078Y-112448108D01*
X122683521Y-112325665D01*
X122744844Y-112292180D01*
X122814536Y-112297164D01*
X122870470Y-112339035D01*
X122887385Y-112370013D01*
X122936645Y-112502086D01*
X122936649Y-112502093D01*
X123022809Y-112617187D01*
X123022812Y-112617190D01*
X123137906Y-112703350D01*
X123137913Y-112703354D01*
X123272620Y-112753596D01*
X123272627Y-112753598D01*
X123332155Y-112759999D01*
X123332172Y-112760000D01*
X123980000Y-112760000D01*
X123980000Y-111845501D01*
X124087685Y-111894680D01*
X124194237Y-111910000D01*
X124265763Y-111910000D01*
X124372315Y-111894680D01*
X124480000Y-111845501D01*
X124480000Y-112760000D01*
X125127828Y-112760000D01*
X125127844Y-112759999D01*
X125187372Y-112753598D01*
X125187379Y-112753596D01*
X125322086Y-112703354D01*
X125322093Y-112703350D01*
X125437187Y-112617190D01*
X125437190Y-112617187D01*
X125523350Y-112502093D01*
X125523354Y-112502086D01*
X125573596Y-112367379D01*
X125573598Y-112367372D01*
X125579999Y-112307844D01*
X125580000Y-112307827D01*
X125580000Y-111660000D01*
X124663686Y-111660000D01*
X124689493Y-111619844D01*
X124730000Y-111481889D01*
X124730000Y-111338111D01*
X124689493Y-111200156D01*
X124663686Y-111160000D01*
X125580000Y-111160000D01*
X125580000Y-110512172D01*
X125579999Y-110512155D01*
X125573598Y-110452627D01*
X125573596Y-110452620D01*
X125523354Y-110317913D01*
X125523350Y-110317906D01*
X125437190Y-110202812D01*
X125437187Y-110202809D01*
X125322093Y-110116649D01*
X125322088Y-110116646D01*
X125190528Y-110067577D01*
X125134595Y-110025705D01*
X125110178Y-109960241D01*
X125125030Y-109891968D01*
X125146175Y-109863720D01*
X125268495Y-109741401D01*
X125404035Y-109547830D01*
X125503903Y-109333663D01*
X125565063Y-109105408D01*
X125585659Y-108870000D01*
X125565063Y-108634592D01*
X125503903Y-108406337D01*
X125404035Y-108192171D01*
X125398425Y-108184158D01*
X125268494Y-107998597D01*
X125101402Y-107831506D01*
X125101396Y-107831501D01*
X124915842Y-107701575D01*
X124872217Y-107646998D01*
X124865023Y-107577500D01*
X124896546Y-107515145D01*
X124915842Y-107498425D01*
X124938026Y-107482891D01*
X125101401Y-107368495D01*
X125268495Y-107201401D01*
X125404035Y-107007830D01*
X125503903Y-106793663D01*
X125565063Y-106565408D01*
X125585659Y-106330000D01*
X125565063Y-106094592D01*
X125503903Y-105866337D01*
X125404035Y-105652171D01*
X125398425Y-105644158D01*
X125268494Y-105458597D01*
X125101402Y-105291506D01*
X125101396Y-105291501D01*
X124915842Y-105161575D01*
X124872217Y-105106998D01*
X124865023Y-105037500D01*
X124896546Y-104975145D01*
X124915842Y-104958425D01*
X125028558Y-104879500D01*
X125101401Y-104828495D01*
X125268495Y-104661401D01*
X125404035Y-104467830D01*
X125503903Y-104253663D01*
X125565063Y-104025408D01*
X125565063Y-104025407D01*
X125566464Y-104020179D01*
X125568759Y-104020794D01*
X125595308Y-103967222D01*
X125655253Y-103931329D01*
X125725088Y-103933542D01*
X125774082Y-103963672D01*
X127699194Y-105888784D01*
X127709019Y-105901048D01*
X127709240Y-105900866D01*
X127714210Y-105906874D01*
X127763239Y-105952915D01*
X127766036Y-105955626D01*
X127785530Y-105975120D01*
X127788695Y-105977575D01*
X127797571Y-105985156D01*
X127829418Y-106015062D01*
X127829422Y-106015064D01*
X127846973Y-106024713D01*
X127863231Y-106035392D01*
X127879064Y-106047674D01*
X127898932Y-106056271D01*
X127919155Y-106065022D01*
X127929635Y-106070155D01*
X127967908Y-106091197D01*
X127987312Y-106096179D01*
X128005710Y-106102478D01*
X128024105Y-106110438D01*
X128067254Y-106117271D01*
X128078680Y-106119638D01*
X128120981Y-106130500D01*
X128141016Y-106130500D01*
X128160413Y-106132026D01*
X128180196Y-106135160D01*
X128223675Y-106131050D01*
X128235344Y-106130500D01*
X129698480Y-106130500D01*
X129765519Y-106150185D01*
X129786161Y-106166819D01*
X129879811Y-106260469D01*
X129879813Y-106260470D01*
X129879815Y-106260472D01*
X130025394Y-106348478D01*
X130187804Y-106399086D01*
X130258384Y-106405500D01*
X130258387Y-106405500D01*
X130921613Y-106405500D01*
X130921616Y-106405500D01*
X130992196Y-106399086D01*
X131154606Y-106348478D01*
X131300185Y-106260472D01*
X131420472Y-106140185D01*
X131508478Y-105994606D01*
X131559086Y-105832196D01*
X131565500Y-105761616D01*
X131565500Y-105248384D01*
X131559086Y-105177804D01*
X131508478Y-105015394D01*
X131420472Y-104869815D01*
X131420470Y-104869813D01*
X131420469Y-104869811D01*
X131318339Y-104767681D01*
X131284854Y-104706358D01*
X131289838Y-104636666D01*
X131318339Y-104592319D01*
X131420468Y-104490189D01*
X131420469Y-104490188D01*
X131420472Y-104490185D01*
X131508478Y-104344606D01*
X131559086Y-104182196D01*
X131565500Y-104111616D01*
X131565500Y-103598384D01*
X131559086Y-103527804D01*
X131508478Y-103365394D01*
X131426972Y-103230568D01*
X131409137Y-103163016D01*
X131430654Y-103096542D01*
X131467998Y-103060878D01*
X131471003Y-103059026D01*
X131594026Y-102936003D01*
X131685362Y-102787925D01*
X131740087Y-102622775D01*
X131750500Y-102520848D01*
X131750500Y-101934152D01*
X131740087Y-101832225D01*
X131685362Y-101667075D01*
X131685358Y-101667069D01*
X131685357Y-101667066D01*
X131594028Y-101519000D01*
X131594025Y-101518996D01*
X131471003Y-101395974D01*
X131470995Y-101395968D01*
X131469812Y-101395238D01*
X131469171Y-101394525D01*
X131465336Y-101391493D01*
X131465854Y-101390837D01*
X131423091Y-101343287D01*
X131411875Y-101274323D01*
X131439723Y-101210243D01*
X131465123Y-101188238D01*
X131465023Y-101188112D01*
X131467842Y-101185882D01*
X131469832Y-101184159D01*
X131470692Y-101183628D01*
X131593629Y-101060691D01*
X131684903Y-100912714D01*
X131684905Y-100912709D01*
X131739592Y-100747673D01*
X131749999Y-100645815D01*
X131750000Y-100645802D01*
X131750000Y-100602500D01*
X129350000Y-100602500D01*
X129350000Y-100645815D01*
X129360407Y-100747673D01*
X129415094Y-100912709D01*
X129415096Y-100912714D01*
X129506370Y-101060691D01*
X129629309Y-101183630D01*
X129630173Y-101184163D01*
X129630641Y-101184683D01*
X129634977Y-101188112D01*
X129634391Y-101188852D01*
X129676901Y-101236108D01*
X129688126Y-101305070D01*
X129660286Y-101369154D01*
X129634601Y-101391414D01*
X129634664Y-101391493D01*
X129632912Y-101392878D01*
X129630194Y-101395234D01*
X129629005Y-101395967D01*
X129628996Y-101395974D01*
X129505974Y-101518996D01*
X129505971Y-101519000D01*
X129414642Y-101667066D01*
X129414637Y-101667077D01*
X129359913Y-101832223D01*
X129349500Y-101934144D01*
X129349500Y-102520855D01*
X129359913Y-102622776D01*
X129414637Y-102787922D01*
X129414642Y-102787933D01*
X129505971Y-102935999D01*
X129505974Y-102936003D01*
X129628997Y-103059026D01*
X129690278Y-103096825D01*
X129737002Y-103148773D01*
X129748223Y-103217736D01*
X129731297Y-103266512D01*
X129671523Y-103365391D01*
X129620913Y-103527807D01*
X129616156Y-103580156D01*
X129614500Y-103598384D01*
X129614500Y-104111616D01*
X129616423Y-104132778D01*
X129620913Y-104182192D01*
X129620913Y-104182194D01*
X129620914Y-104182196D01*
X129671522Y-104344606D01*
X129759530Y-104490188D01*
X129861661Y-104592319D01*
X129895146Y-104653642D01*
X129890162Y-104723334D01*
X129861661Y-104767681D01*
X129786161Y-104843181D01*
X129724838Y-104876666D01*
X129698480Y-104879500D01*
X128510452Y-104879500D01*
X128443413Y-104859815D01*
X128422771Y-104843181D01*
X126915604Y-103336013D01*
X126882119Y-103274690D01*
X126885354Y-103210014D01*
X126895674Y-103178256D01*
X126915460Y-102990000D01*
X126895674Y-102801744D01*
X126837179Y-102621716D01*
X126742533Y-102457784D01*
X126615871Y-102317112D01*
X126615870Y-102317111D01*
X126462734Y-102205851D01*
X126462729Y-102205848D01*
X126289807Y-102128857D01*
X126289802Y-102128855D01*
X126144001Y-102097865D01*
X126104646Y-102089500D01*
X125915354Y-102089500D01*
X125882897Y-102096398D01*
X125730197Y-102128855D01*
X125730192Y-102128857D01*
X125557271Y-102205848D01*
X125448569Y-102284824D01*
X125382762Y-102308303D01*
X125314708Y-102292477D01*
X125266014Y-102242371D01*
X125252139Y-102173893D01*
X125274107Y-102113385D01*
X125404035Y-101927830D01*
X125503903Y-101713663D01*
X125565063Y-101485408D01*
X125585659Y-101250000D01*
X125583515Y-101225500D01*
X125579899Y-101184163D01*
X125565063Y-101014592D01*
X125503903Y-100786337D01*
X125404035Y-100572171D01*
X125398425Y-100564158D01*
X125268494Y-100378597D01*
X125101402Y-100211506D01*
X125101396Y-100211501D01*
X124945726Y-100102500D01*
X129350000Y-100102500D01*
X130300000Y-100102500D01*
X130300000Y-99365000D01*
X130800000Y-99365000D01*
X130800000Y-100102500D01*
X131750000Y-100102500D01*
X131750000Y-100059197D01*
X131749999Y-100059184D01*
X131739592Y-99957326D01*
X131684905Y-99792290D01*
X131684903Y-99792285D01*
X131593629Y-99644308D01*
X131470691Y-99521370D01*
X131322714Y-99430096D01*
X131322709Y-99430094D01*
X131157673Y-99375407D01*
X131055815Y-99365000D01*
X130800000Y-99365000D01*
X130300000Y-99365000D01*
X130044184Y-99365000D01*
X129942326Y-99375407D01*
X129777290Y-99430094D01*
X129777285Y-99430096D01*
X129629308Y-99521370D01*
X129506370Y-99644308D01*
X129415096Y-99792285D01*
X129415094Y-99792290D01*
X129360407Y-99957326D01*
X129350000Y-100059184D01*
X129350000Y-100102500D01*
X124945726Y-100102500D01*
X124915842Y-100081575D01*
X124872217Y-100026998D01*
X124865023Y-99957500D01*
X124896546Y-99895145D01*
X124915842Y-99878425D01*
X125038862Y-99792285D01*
X125101401Y-99748495D01*
X125268495Y-99581401D01*
X125404035Y-99387830D01*
X125503903Y-99173663D01*
X125565063Y-98945408D01*
X125585659Y-98710000D01*
X125565063Y-98474592D01*
X125538143Y-98374125D01*
X125539806Y-98304276D01*
X125570235Y-98254353D01*
X128822772Y-95001819D01*
X128884095Y-94968334D01*
X128910453Y-94965500D01*
X129394714Y-94965500D01*
X129461753Y-94985185D01*
X129488427Y-95008297D01*
X129527112Y-95052943D01*
X129635762Y-95147088D01*
X129635771Y-95147094D01*
X129635774Y-95147097D01*
X129635779Y-95147100D01*
X129635783Y-95147103D01*
X129756833Y-95224897D01*
X129756856Y-95224910D01*
X129888433Y-95284999D01*
X129891856Y-95285872D01*
X130025723Y-95325180D01*
X130025724Y-95325180D01*
X130025727Y-95325181D01*
X130068162Y-95331281D01*
X130168038Y-95345642D01*
X130224397Y-95345642D01*
X130224414Y-95345647D01*
X130275764Y-95345647D01*
X130755556Y-95345647D01*
X130755603Y-95345642D01*
X130811961Y-95345642D01*
X130811962Y-95345642D01*
X130945500Y-95326442D01*
X130945502Y-95326442D01*
X130951633Y-95325560D01*
X130954277Y-95325180D01*
X130954278Y-95325180D01*
X131092370Y-95284632D01*
X131098981Y-95281613D01*
X131223143Y-95224910D01*
X131223147Y-95224907D01*
X131223155Y-95224904D01*
X131344226Y-95147097D01*
X131452887Y-95052943D01*
X131452890Y-95052940D01*
X131547139Y-94944170D01*
X131624871Y-94823216D01*
X131684658Y-94692300D01*
X131725165Y-94554345D01*
X131745647Y-94411889D01*
X131745647Y-93840000D01*
X131740500Y-93768039D01*
X131738545Y-93761382D01*
X131699954Y-93629949D01*
X131659260Y-93566628D01*
X131622143Y-93508872D01*
X131513373Y-93414623D01*
X131513371Y-93414622D01*
X131382456Y-93354834D01*
X131275792Y-93339499D01*
X131240000Y-93334353D01*
X130775763Y-93334353D01*
X130704236Y-93334353D01*
X130275764Y-93334353D01*
X130204237Y-93334353D01*
X129740000Y-93334353D01*
X129739997Y-93334353D01*
X129668039Y-93339499D01*
X129668034Y-93339500D01*
X129529949Y-93380045D01*
X129408873Y-93457856D01*
X129314623Y-93566626D01*
X129314622Y-93566628D01*
X129280195Y-93642012D01*
X129234440Y-93694816D01*
X129167401Y-93714500D01*
X128682737Y-93714500D01*
X128667120Y-93712776D01*
X128667093Y-93713062D01*
X128659331Y-93712327D01*
X128592144Y-93714439D01*
X128588250Y-93714500D01*
X128560650Y-93714500D01*
X128556962Y-93714965D01*
X128556649Y-93715005D01*
X128545031Y-93715918D01*
X128501373Y-93717290D01*
X128501372Y-93717290D01*
X128482129Y-93722881D01*
X128463079Y-93726825D01*
X128443211Y-93729334D01*
X128443210Y-93729335D01*
X128402600Y-93745413D01*
X128391553Y-93749195D01*
X128349610Y-93761381D01*
X128349609Y-93761382D01*
X128332367Y-93771579D01*
X128314899Y-93780137D01*
X128296269Y-93787513D01*
X128296266Y-93787515D01*
X128260939Y-93813181D01*
X128251180Y-93819592D01*
X128213579Y-93841830D01*
X128199408Y-93856000D01*
X128184623Y-93868628D01*
X128168412Y-93880407D01*
X128140571Y-93914059D01*
X128132711Y-93922696D01*
X125797340Y-96258068D01*
X125736017Y-96291553D01*
X125666325Y-96286569D01*
X125610392Y-96244697D01*
X125585975Y-96179233D01*
X125585659Y-96170387D01*
X125585659Y-96169999D01*
X125570128Y-95992489D01*
X125565063Y-95934592D01*
X125503903Y-95706337D01*
X125404035Y-95492171D01*
X125398731Y-95484595D01*
X125268494Y-95298597D01*
X125101402Y-95131506D01*
X125101396Y-95131501D01*
X124915842Y-95001575D01*
X124872217Y-94946998D01*
X124865023Y-94877500D01*
X124896546Y-94815145D01*
X124915842Y-94798425D01*
X125057121Y-94699500D01*
X125101401Y-94668495D01*
X125268495Y-94501401D01*
X125404035Y-94307830D01*
X125503903Y-94093663D01*
X125565063Y-93865408D01*
X125585659Y-93630000D01*
X125565063Y-93394592D01*
X125503903Y-93166337D01*
X125404035Y-92952171D01*
X125398425Y-92944158D01*
X125268494Y-92758597D01*
X125101402Y-92591506D01*
X125101396Y-92591501D01*
X124915842Y-92461575D01*
X124872217Y-92406998D01*
X124865023Y-92337500D01*
X124896546Y-92275145D01*
X124915842Y-92258425D01*
X124938026Y-92242891D01*
X125101401Y-92128495D01*
X125268495Y-91961401D01*
X125404035Y-91767830D01*
X125503903Y-91553663D01*
X125565063Y-91325408D01*
X125585659Y-91090000D01*
X125565063Y-90854592D01*
X125503903Y-90626337D01*
X125404035Y-90412171D01*
X125398425Y-90404158D01*
X125268494Y-90218597D01*
X125101402Y-90051506D01*
X125101401Y-90051505D01*
X124915405Y-89921269D01*
X124871781Y-89866692D01*
X124864588Y-89797193D01*
X124896110Y-89734839D01*
X124915405Y-89718119D01*
X125101082Y-89588105D01*
X125268105Y-89421082D01*
X125403600Y-89227578D01*
X125503429Y-89013492D01*
X125503432Y-89013486D01*
X125560636Y-88800000D01*
X124663686Y-88800000D01*
X124689493Y-88759844D01*
X124730000Y-88621889D01*
X124730000Y-88478111D01*
X124689493Y-88340156D01*
X124663686Y-88300000D01*
X125560636Y-88300000D01*
X125560635Y-88299999D01*
X125503432Y-88086513D01*
X125503429Y-88086507D01*
X125403600Y-87872422D01*
X125403599Y-87872420D01*
X125268113Y-87678926D01*
X125268108Y-87678920D01*
X125101082Y-87511894D01*
X124907578Y-87376399D01*
X124693492Y-87276570D01*
X124693486Y-87276567D01*
X124480000Y-87219364D01*
X124480000Y-88114498D01*
X124372315Y-88065320D01*
X124265763Y-88050000D01*
X124194237Y-88050000D01*
X124087685Y-88065320D01*
X123980000Y-88114498D01*
X123980000Y-87219364D01*
X123979999Y-87219364D01*
X123766513Y-87276567D01*
X123766507Y-87276570D01*
X123552422Y-87376399D01*
X123552420Y-87376400D01*
X123358926Y-87511886D01*
X123358920Y-87511891D01*
X123191891Y-87678920D01*
X123191890Y-87678922D01*
X123061575Y-87865031D01*
X123006998Y-87908655D01*
X122937499Y-87915848D01*
X122875145Y-87884326D01*
X122858425Y-87865031D01*
X122728109Y-87678922D01*
X122728108Y-87678920D01*
X122561082Y-87511894D01*
X122367578Y-87376399D01*
X122153492Y-87276570D01*
X122153486Y-87276567D01*
X121940000Y-87219364D01*
X121940000Y-88114498D01*
X121832315Y-88065320D01*
X121725763Y-88050000D01*
X121654237Y-88050000D01*
X121547685Y-88065320D01*
X121440000Y-88114498D01*
X121440000Y-87219364D01*
X121439999Y-87219364D01*
X121226513Y-87276567D01*
X121226507Y-87276570D01*
X121012422Y-87376399D01*
X121012420Y-87376400D01*
X120818926Y-87511886D01*
X120818920Y-87511891D01*
X120651891Y-87678920D01*
X120651886Y-87678926D01*
X120516400Y-87872420D01*
X120516399Y-87872422D01*
X120416570Y-88086507D01*
X120416567Y-88086513D01*
X120359364Y-88299999D01*
X120359364Y-88300000D01*
X121256314Y-88300000D01*
X121230507Y-88340156D01*
X121190000Y-88478111D01*
X121190000Y-88621889D01*
X121230507Y-88759844D01*
X121256314Y-88800000D01*
X120359364Y-88800000D01*
X120416567Y-89013486D01*
X120416570Y-89013492D01*
X120516399Y-89227578D01*
X120651894Y-89421082D01*
X120818917Y-89588105D01*
X121004595Y-89718119D01*
X121048219Y-89772696D01*
X121055412Y-89842195D01*
X121023890Y-89904549D01*
X121004595Y-89921269D01*
X120818594Y-90051508D01*
X120651505Y-90218597D01*
X120515965Y-90412169D01*
X120515964Y-90412171D01*
X120416098Y-90626335D01*
X120416094Y-90626344D01*
X120354938Y-90854586D01*
X120354936Y-90854596D01*
X120334341Y-91089999D01*
X120334341Y-91090000D01*
X120354936Y-91325403D01*
X120354938Y-91325413D01*
X120381856Y-91425872D01*
X120380193Y-91495722D01*
X120349762Y-91545646D01*
X115157228Y-96738181D01*
X115095905Y-96771666D01*
X115069547Y-96774500D01*
X104335407Y-96774500D01*
X104268368Y-96754815D01*
X104222613Y-96702011D01*
X104211410Y-96651362D01*
X104203582Y-95525362D01*
X104222800Y-95458187D01*
X104275285Y-95412066D01*
X104327579Y-95400500D01*
X104568995Y-95400500D01*
X104660041Y-95382389D01*
X104704328Y-95373580D01*
X104821174Y-95325181D01*
X104831804Y-95320778D01*
X104831804Y-95320777D01*
X104831811Y-95320775D01*
X104946542Y-95244114D01*
X105044114Y-95146542D01*
X105120775Y-95031811D01*
X105173580Y-94904328D01*
X105189714Y-94823216D01*
X105200500Y-94768995D01*
X105200500Y-94631004D01*
X105173581Y-94495677D01*
X105173580Y-94495676D01*
X105173580Y-94495672D01*
X105138875Y-94411886D01*
X105120778Y-94368195D01*
X105120771Y-94368182D01*
X105044114Y-94253458D01*
X105044111Y-94253454D01*
X104946545Y-94155888D01*
X104946541Y-94155885D01*
X104831817Y-94079228D01*
X104831804Y-94079221D01*
X104704332Y-94026421D01*
X104704322Y-94026418D01*
X104568995Y-93999500D01*
X104568993Y-93999500D01*
X104500099Y-93999500D01*
X100259760Y-93999500D01*
X100240359Y-93997973D01*
X100240051Y-93997924D01*
X100235294Y-93997074D01*
X100181264Y-93986327D01*
X100149167Y-93975196D01*
X100141017Y-93971043D01*
X100128437Y-93963669D01*
X100098597Y-93943730D01*
X100079808Y-93928310D01*
X100071688Y-93920190D01*
X100056268Y-93901401D01*
X100036329Y-93871561D01*
X100028961Y-93858993D01*
X100024799Y-93850823D01*
X100013673Y-93818741D01*
X100002913Y-93764649D01*
X100002050Y-93759790D01*
X100001996Y-93759449D01*
X100000500Y-93740247D01*
X100000500Y-91345168D01*
X100000972Y-91334359D01*
X100001756Y-91325403D01*
X100002928Y-91312007D01*
X100003114Y-91310070D01*
X100018818Y-91160435D01*
X100022362Y-91141305D01*
X100038566Y-91080841D01*
X100040379Y-91074723D01*
X100073459Y-90972929D01*
X100078995Y-90958876D01*
X100108213Y-90896225D01*
X100113183Y-90886677D01*
X100164209Y-90798306D01*
X100170010Y-90789202D01*
X100187857Y-90763716D01*
X100209656Y-90732585D01*
X100219060Y-90720764D01*
X100290669Y-90641239D01*
X100295083Y-90636588D01*
X100339367Y-90592307D01*
X100354124Y-90579703D01*
X100474206Y-90492463D01*
X100475699Y-90491399D01*
X100496259Y-90477003D01*
X100505338Y-90471220D01*
X105651641Y-87500000D01*
X109795065Y-87500000D01*
X109814786Y-87826038D01*
X109873667Y-88147341D01*
X109970835Y-88459164D01*
X109970839Y-88459175D01*
X110104897Y-88757041D01*
X110104898Y-88757043D01*
X110273881Y-89036576D01*
X110421476Y-89224968D01*
X110934069Y-88712375D01*
X111133274Y-88712375D01*
X111172887Y-88794631D01*
X111244266Y-88851553D01*
X111310742Y-88866726D01*
X111355806Y-88866726D01*
X111422282Y-88851553D01*
X111493661Y-88794631D01*
X111533274Y-88712375D01*
X111533274Y-88621077D01*
X111493661Y-88538821D01*
X111422282Y-88481899D01*
X111355806Y-88466726D01*
X111310742Y-88466726D01*
X111244266Y-88481899D01*
X111172887Y-88538821D01*
X111133274Y-88621077D01*
X111133274Y-88712375D01*
X110934069Y-88712375D01*
X111564210Y-88082234D01*
X111664894Y-88223624D01*
X111816932Y-88368592D01*
X111919222Y-88434330D01*
X110775030Y-89578522D01*
X110775030Y-89578523D01*
X110963423Y-89726118D01*
X111242956Y-89895101D01*
X111242958Y-89895102D01*
X111540824Y-90029160D01*
X111540835Y-90029164D01*
X111852658Y-90126332D01*
X112173961Y-90185213D01*
X112500000Y-90204934D01*
X112826038Y-90185213D01*
X113147341Y-90126332D01*
X113459164Y-90029164D01*
X113459175Y-90029160D01*
X113757041Y-89895102D01*
X113757043Y-89895101D01*
X114036586Y-89726112D01*
X114224968Y-89578523D01*
X114224968Y-89578522D01*
X113358822Y-88712375D01*
X113466726Y-88712375D01*
X113506339Y-88794631D01*
X113577718Y-88851553D01*
X113644194Y-88866726D01*
X113689258Y-88866726D01*
X113755734Y-88851553D01*
X113827113Y-88794631D01*
X113866726Y-88712375D01*
X113866726Y-88621077D01*
X113827113Y-88538821D01*
X113755734Y-88481899D01*
X113689258Y-88466726D01*
X113644194Y-88466726D01*
X113577718Y-88481899D01*
X113506339Y-88538821D01*
X113466726Y-88621077D01*
X113466726Y-88712375D01*
X113358822Y-88712375D01*
X113083306Y-88436859D01*
X113097410Y-88429589D01*
X113262540Y-88299729D01*
X113400110Y-88140965D01*
X113434665Y-88081112D01*
X114578522Y-89224968D01*
X114578523Y-89224968D01*
X114726112Y-89036586D01*
X114895101Y-88757043D01*
X114895102Y-88757041D01*
X115029160Y-88459175D01*
X115029164Y-88459164D01*
X115126332Y-88147341D01*
X115185213Y-87826038D01*
X115204934Y-87500000D01*
X115185213Y-87173961D01*
X115126332Y-86852658D01*
X115029164Y-86540835D01*
X115029160Y-86540824D01*
X114895102Y-86242958D01*
X114895101Y-86242956D01*
X114726118Y-85963423D01*
X114578522Y-85775030D01*
X113435788Y-86917764D01*
X113335106Y-86776376D01*
X113183068Y-86631408D01*
X113080776Y-86565669D01*
X113267522Y-86378923D01*
X113466726Y-86378923D01*
X113506339Y-86461179D01*
X113577718Y-86518101D01*
X113644194Y-86533274D01*
X113689258Y-86533274D01*
X113755734Y-86518101D01*
X113827113Y-86461179D01*
X113866726Y-86378923D01*
X113866726Y-86287625D01*
X113827113Y-86205369D01*
X113755734Y-86148447D01*
X113689258Y-86133274D01*
X113644194Y-86133274D01*
X113577718Y-86148447D01*
X113506339Y-86205369D01*
X113466726Y-86287625D01*
X113466726Y-86378923D01*
X113267522Y-86378923D01*
X114224968Y-85421476D01*
X114036576Y-85273881D01*
X113757043Y-85104898D01*
X113757041Y-85104897D01*
X113459175Y-84970839D01*
X113459164Y-84970835D01*
X113147341Y-84873667D01*
X112826038Y-84814786D01*
X112500000Y-84795065D01*
X112173961Y-84814786D01*
X111852658Y-84873667D01*
X111540835Y-84970835D01*
X111540824Y-84970839D01*
X111242958Y-85104897D01*
X111242956Y-85104898D01*
X110963422Y-85273881D01*
X110963416Y-85273886D01*
X110775030Y-85421474D01*
X110775029Y-85421476D01*
X111916693Y-86563140D01*
X111902590Y-86570411D01*
X111737460Y-86700271D01*
X111599890Y-86859035D01*
X111565334Y-86918887D01*
X111025370Y-86378923D01*
X111133274Y-86378923D01*
X111172887Y-86461179D01*
X111244266Y-86518101D01*
X111310742Y-86533274D01*
X111355806Y-86533274D01*
X111422282Y-86518101D01*
X111493661Y-86461179D01*
X111533274Y-86378923D01*
X111533274Y-86287625D01*
X111493661Y-86205369D01*
X111422282Y-86148447D01*
X111355806Y-86133274D01*
X111310742Y-86133274D01*
X111244266Y-86148447D01*
X111172887Y-86205369D01*
X111133274Y-86287625D01*
X111133274Y-86378923D01*
X111025370Y-86378923D01*
X110421476Y-85775029D01*
X110421474Y-85775030D01*
X110273886Y-85963416D01*
X110273881Y-85963422D01*
X110104898Y-86242956D01*
X110104897Y-86242958D01*
X109970839Y-86540824D01*
X109970835Y-86540835D01*
X109873667Y-86852658D01*
X109814786Y-87173961D01*
X109795065Y-87500000D01*
X105651641Y-87500000D01*
X115495581Y-81816597D01*
X115505141Y-81811620D01*
X115525157Y-81802287D01*
X115526861Y-81801510D01*
X115664957Y-81740026D01*
X115683263Y-81733543D01*
X115742699Y-81717618D01*
X115748932Y-81716122D01*
X115854737Y-81693632D01*
X115869692Y-81691397D01*
X115937703Y-81685447D01*
X115948510Y-81684975D01*
X116051480Y-81684975D01*
X116062287Y-81685447D01*
G37*
G04 #@! TD.AperFunction*
G04 #@! TA.AperFunction,Conductor*
G36*
X123770507Y-111200156D02*
G01*
X123730000Y-111338111D01*
X123730000Y-111481889D01*
X123770507Y-111619844D01*
X123796314Y-111660000D01*
X122123686Y-111660000D01*
X122149493Y-111619844D01*
X122190000Y-111481889D01*
X122190000Y-111338111D01*
X122149493Y-111200156D01*
X122123686Y-111160000D01*
X123796314Y-111160000D01*
X123770507Y-111200156D01*
G37*
G04 #@! TD.AperFunction*
G04 #@! TA.AperFunction,Conductor*
G36*
X123044855Y-109536546D02*
G01*
X123061575Y-109555842D01*
X123191501Y-109741396D01*
X123191506Y-109741402D01*
X123313818Y-109863714D01*
X123347303Y-109925037D01*
X123342319Y-109994729D01*
X123300447Y-110050662D01*
X123269471Y-110067577D01*
X123137912Y-110116646D01*
X123137906Y-110116649D01*
X123022812Y-110202809D01*
X123022809Y-110202812D01*
X122936649Y-110317906D01*
X122936646Y-110317911D01*
X122887385Y-110449987D01*
X122845513Y-110505920D01*
X122780049Y-110530337D01*
X122711776Y-110515485D01*
X122683522Y-110494334D01*
X122561078Y-110371890D01*
X122375405Y-110241879D01*
X122331780Y-110187302D01*
X122324588Y-110117804D01*
X122356110Y-110055449D01*
X122375406Y-110038730D01*
X122438246Y-109994729D01*
X122561401Y-109908495D01*
X122728495Y-109741401D01*
X122858425Y-109555842D01*
X122913002Y-109512217D01*
X122982500Y-109505023D01*
X123044855Y-109536546D01*
G37*
G04 #@! TD.AperFunction*
G04 #@! TA.AperFunction,Conductor*
G36*
X123044855Y-106996546D02*
G01*
X123061575Y-107015842D01*
X123191501Y-107201396D01*
X123191506Y-107201402D01*
X123358597Y-107368493D01*
X123358603Y-107368498D01*
X123544158Y-107498425D01*
X123587783Y-107553002D01*
X123594977Y-107622500D01*
X123563454Y-107684855D01*
X123544158Y-107701575D01*
X123358597Y-107831505D01*
X123191505Y-107998597D01*
X123061575Y-108184158D01*
X123006998Y-108227783D01*
X122937500Y-108234977D01*
X122875145Y-108203454D01*
X122858425Y-108184158D01*
X122728494Y-107998597D01*
X122561402Y-107831506D01*
X122561396Y-107831501D01*
X122375842Y-107701575D01*
X122332217Y-107646998D01*
X122325023Y-107577500D01*
X122356546Y-107515145D01*
X122375842Y-107498425D01*
X122398026Y-107482891D01*
X122561401Y-107368495D01*
X122728495Y-107201401D01*
X122858425Y-107015842D01*
X122913002Y-106972217D01*
X122982500Y-106965023D01*
X123044855Y-106996546D01*
G37*
G04 #@! TD.AperFunction*
G04 #@! TA.AperFunction,Conductor*
G36*
X123044549Y-104456110D02*
G01*
X123061269Y-104475405D01*
X123191505Y-104661401D01*
X123191506Y-104661402D01*
X123358597Y-104828493D01*
X123358603Y-104828498D01*
X123544158Y-104958425D01*
X123587783Y-105013002D01*
X123594977Y-105082500D01*
X123563454Y-105144855D01*
X123544158Y-105161575D01*
X123358597Y-105291505D01*
X123191505Y-105458597D01*
X123061575Y-105644158D01*
X123006998Y-105687783D01*
X122937500Y-105694977D01*
X122875145Y-105663454D01*
X122858425Y-105644158D01*
X122728494Y-105458597D01*
X122561402Y-105291506D01*
X122561401Y-105291505D01*
X122375405Y-105161269D01*
X122331781Y-105106692D01*
X122324588Y-105037193D01*
X122356110Y-104974839D01*
X122375405Y-104958119D01*
X122561082Y-104828105D01*
X122728105Y-104661082D01*
X122858119Y-104475405D01*
X122912696Y-104431781D01*
X122982195Y-104424588D01*
X123044549Y-104456110D01*
G37*
G04 #@! TD.AperFunction*
G04 #@! TA.AperFunction,Conductor*
G36*
X120285612Y-101245185D02*
G01*
X120331367Y-101297989D01*
X120342101Y-101338693D01*
X120354936Y-101485402D01*
X120354938Y-101485413D01*
X120416094Y-101713655D01*
X120416096Y-101713659D01*
X120416097Y-101713663D01*
X120459402Y-101806530D01*
X120515965Y-101927830D01*
X120515967Y-101927834D01*
X120624281Y-102082521D01*
X120651501Y-102121396D01*
X120651506Y-102121402D01*
X120818597Y-102288493D01*
X120818603Y-102288498D01*
X121004594Y-102418730D01*
X121048219Y-102473307D01*
X121055413Y-102542805D01*
X121023890Y-102605160D01*
X121004595Y-102621880D01*
X120818922Y-102751890D01*
X120818920Y-102751891D01*
X120651891Y-102918920D01*
X120651886Y-102918926D01*
X120516400Y-103112420D01*
X120516399Y-103112422D01*
X120416570Y-103326507D01*
X120416567Y-103326513D01*
X120359364Y-103539999D01*
X120359364Y-103540000D01*
X121256314Y-103540000D01*
X121230507Y-103580156D01*
X121190000Y-103718111D01*
X121190000Y-103861889D01*
X121230507Y-103999844D01*
X121256314Y-104040000D01*
X120359364Y-104040000D01*
X120416567Y-104253486D01*
X120416570Y-104253492D01*
X120516399Y-104467578D01*
X120651894Y-104661082D01*
X120818917Y-104828105D01*
X121004595Y-104958119D01*
X121048219Y-105012696D01*
X121055412Y-105082195D01*
X121023890Y-105144549D01*
X121004595Y-105161269D01*
X120818594Y-105291508D01*
X120651506Y-105458597D01*
X120651502Y-105458601D01*
X120629881Y-105489480D01*
X120575303Y-105533104D01*
X120505805Y-105540296D01*
X120443450Y-105508773D01*
X120440626Y-105506036D01*
X118617777Y-103683187D01*
X116750803Y-101816212D01*
X116740980Y-101803950D01*
X116740759Y-101804134D01*
X116735786Y-101798122D01*
X116686776Y-101752099D01*
X116683977Y-101749386D01*
X116664477Y-101729885D01*
X116664471Y-101729880D01*
X116661286Y-101727409D01*
X116652434Y-101719848D01*
X116620582Y-101689938D01*
X116620580Y-101689936D01*
X116620577Y-101689935D01*
X116603029Y-101680288D01*
X116586763Y-101669604D01*
X116583505Y-101667077D01*
X116570936Y-101657327D01*
X116570935Y-101657326D01*
X116570932Y-101657324D01*
X116530849Y-101639978D01*
X116520363Y-101634841D01*
X116482094Y-101613803D01*
X116482092Y-101613802D01*
X116462693Y-101608822D01*
X116444281Y-101602518D01*
X116425898Y-101594562D01*
X116425892Y-101594560D01*
X116382760Y-101587729D01*
X116371322Y-101585361D01*
X116329020Y-101574500D01*
X116329019Y-101574500D01*
X116308984Y-101574500D01*
X116289586Y-101572973D01*
X116282162Y-101571797D01*
X116269805Y-101569840D01*
X116269804Y-101569840D01*
X116226325Y-101573950D01*
X116214656Y-101574500D01*
X104368773Y-101574500D01*
X104301734Y-101554815D01*
X104255979Y-101502011D01*
X104244776Y-101451362D01*
X104244074Y-101350362D01*
X104263292Y-101283187D01*
X104315777Y-101237066D01*
X104368071Y-101225500D01*
X120218573Y-101225500D01*
X120285612Y-101245185D01*
G37*
G04 #@! TD.AperFunction*
G04 #@! TA.AperFunction,Conductor*
G36*
X123044855Y-101916546D02*
G01*
X123061575Y-101935842D01*
X123191501Y-102121396D01*
X123191506Y-102121402D01*
X123358597Y-102288493D01*
X123358603Y-102288498D01*
X123544158Y-102418425D01*
X123587783Y-102473002D01*
X123594977Y-102542500D01*
X123563454Y-102604855D01*
X123544158Y-102621575D01*
X123358597Y-102751505D01*
X123191508Y-102918594D01*
X123061269Y-103104595D01*
X123006692Y-103148219D01*
X122937193Y-103155412D01*
X122874839Y-103123890D01*
X122858119Y-103104594D01*
X122728113Y-102918926D01*
X122728108Y-102918920D01*
X122561078Y-102751890D01*
X122375405Y-102621879D01*
X122331780Y-102567302D01*
X122324588Y-102497804D01*
X122356110Y-102435449D01*
X122375406Y-102418730D01*
X122497998Y-102332890D01*
X122561401Y-102288495D01*
X122728495Y-102121401D01*
X122858425Y-101935842D01*
X122913002Y-101892217D01*
X122982500Y-101885023D01*
X123044855Y-101916546D01*
G37*
G04 #@! TD.AperFunction*
G04 #@! TA.AperFunction,Conductor*
G36*
X123044855Y-99376546D02*
G01*
X123061575Y-99395842D01*
X123191501Y-99581396D01*
X123191506Y-99581402D01*
X123358597Y-99748493D01*
X123358603Y-99748498D01*
X123544158Y-99878425D01*
X123587783Y-99933002D01*
X123594977Y-100002500D01*
X123563454Y-100064855D01*
X123544158Y-100081575D01*
X123358597Y-100211505D01*
X123191505Y-100378597D01*
X123061575Y-100564158D01*
X123006998Y-100607783D01*
X122937500Y-100614977D01*
X122875145Y-100583454D01*
X122858425Y-100564158D01*
X122728494Y-100378597D01*
X122561402Y-100211506D01*
X122561401Y-100211505D01*
X122561395Y-100211501D01*
X122375839Y-100081573D01*
X122332216Y-100026997D01*
X122325023Y-99957498D01*
X122356545Y-99895144D01*
X122375831Y-99878432D01*
X122561401Y-99748495D01*
X122728495Y-99581401D01*
X122858425Y-99395842D01*
X122913002Y-99352217D01*
X122982500Y-99345023D01*
X123044855Y-99376546D01*
G37*
G04 #@! TD.AperFunction*
G04 #@! TA.AperFunction,Conductor*
G36*
X121230507Y-95960156D02*
G01*
X121190000Y-96098111D01*
X121190000Y-96241889D01*
X121230507Y-96379844D01*
X121256314Y-96420000D01*
X120359364Y-96420000D01*
X120416567Y-96633486D01*
X120416570Y-96633492D01*
X120516399Y-96847578D01*
X120651894Y-97041082D01*
X120818917Y-97208105D01*
X121004595Y-97338119D01*
X121048219Y-97392696D01*
X121055412Y-97462195D01*
X121023890Y-97524549D01*
X121004595Y-97541269D01*
X120818594Y-97671508D01*
X120651505Y-97838597D01*
X120515965Y-98032169D01*
X120515964Y-98032171D01*
X120416098Y-98246335D01*
X120416094Y-98246344D01*
X120354938Y-98474586D01*
X120354936Y-98474596D01*
X120335376Y-98698170D01*
X120334341Y-98710000D01*
X120354937Y-98945408D01*
X120374496Y-99018409D01*
X120372834Y-99088257D01*
X120333671Y-99146119D01*
X120269443Y-99173623D01*
X120254722Y-99174500D01*
X104352090Y-99174500D01*
X104285051Y-99154815D01*
X104239296Y-99102011D01*
X104228093Y-99051362D01*
X104227391Y-98950362D01*
X104246609Y-98883187D01*
X104299094Y-98837066D01*
X104351388Y-98825500D01*
X117037257Y-98825500D01*
X117052877Y-98827224D01*
X117052904Y-98826939D01*
X117060660Y-98827671D01*
X117060667Y-98827673D01*
X117127873Y-98825561D01*
X117131768Y-98825500D01*
X117159346Y-98825500D01*
X117159350Y-98825500D01*
X117163324Y-98824997D01*
X117174963Y-98824080D01*
X117218627Y-98822709D01*
X117237869Y-98817117D01*
X117256912Y-98813174D01*
X117276792Y-98810664D01*
X117317401Y-98794585D01*
X117328444Y-98790803D01*
X117370390Y-98778618D01*
X117387629Y-98768422D01*
X117405103Y-98759862D01*
X117423727Y-98752488D01*
X117423727Y-98752487D01*
X117423732Y-98752486D01*
X117459083Y-98726800D01*
X117468814Y-98720408D01*
X117506420Y-98698170D01*
X117520589Y-98683999D01*
X117535379Y-98671368D01*
X117551587Y-98659594D01*
X117579438Y-98625926D01*
X117587279Y-98617309D01*
X120248271Y-95956318D01*
X120309593Y-95922834D01*
X120335951Y-95920000D01*
X121256314Y-95920000D01*
X121230507Y-95960156D01*
G37*
G04 #@! TD.AperFunction*
G04 #@! TA.AperFunction,Conductor*
G36*
X123044549Y-96836110D02*
G01*
X123061269Y-96855405D01*
X123191505Y-97041401D01*
X123191506Y-97041402D01*
X123358597Y-97208493D01*
X123358603Y-97208498D01*
X123544158Y-97338425D01*
X123587783Y-97393002D01*
X123594977Y-97462500D01*
X123563454Y-97524855D01*
X123544158Y-97541575D01*
X123358597Y-97671505D01*
X123191505Y-97838597D01*
X123061575Y-98024158D01*
X123006998Y-98067783D01*
X122937500Y-98074977D01*
X122875145Y-98043454D01*
X122858425Y-98024158D01*
X122728494Y-97838597D01*
X122561402Y-97671506D01*
X122561401Y-97671505D01*
X122375405Y-97541269D01*
X122331781Y-97486692D01*
X122324588Y-97417193D01*
X122356110Y-97354839D01*
X122375405Y-97338119D01*
X122561082Y-97208105D01*
X122728105Y-97041082D01*
X122858119Y-96855405D01*
X122912696Y-96811781D01*
X122982195Y-96804588D01*
X123044549Y-96836110D01*
G37*
G04 #@! TD.AperFunction*
G04 #@! TA.AperFunction,Conductor*
G36*
X123044855Y-94296546D02*
G01*
X123061575Y-94315842D01*
X123191501Y-94501396D01*
X123191506Y-94501402D01*
X123358597Y-94668493D01*
X123358603Y-94668498D01*
X123544158Y-94798425D01*
X123587783Y-94853002D01*
X123594977Y-94922500D01*
X123563454Y-94984855D01*
X123544158Y-95001575D01*
X123358597Y-95131505D01*
X123191508Y-95298594D01*
X123061269Y-95484595D01*
X123006692Y-95528219D01*
X122937193Y-95535412D01*
X122874839Y-95503890D01*
X122858119Y-95484594D01*
X122728113Y-95298926D01*
X122728108Y-95298920D01*
X122561078Y-95131890D01*
X122375405Y-95001879D01*
X122331780Y-94947302D01*
X122324588Y-94877804D01*
X122356110Y-94815449D01*
X122375406Y-94798730D01*
X122517121Y-94699500D01*
X122561401Y-94668495D01*
X122728495Y-94501401D01*
X122858425Y-94315842D01*
X122913002Y-94272217D01*
X122982500Y-94265023D01*
X123044855Y-94296546D01*
G37*
G04 #@! TD.AperFunction*
G04 #@! TA.AperFunction,Conductor*
G36*
X123044855Y-91756546D02*
G01*
X123061575Y-91775842D01*
X123191501Y-91961396D01*
X123191506Y-91961402D01*
X123358597Y-92128493D01*
X123358603Y-92128498D01*
X123544158Y-92258425D01*
X123587783Y-92313002D01*
X123594977Y-92382500D01*
X123563454Y-92444855D01*
X123544158Y-92461575D01*
X123358597Y-92591505D01*
X123191505Y-92758597D01*
X123061575Y-92944158D01*
X123006998Y-92987783D01*
X122937500Y-92994977D01*
X122875145Y-92963454D01*
X122858425Y-92944158D01*
X122728494Y-92758597D01*
X122561402Y-92591506D01*
X122561396Y-92591501D01*
X122375842Y-92461575D01*
X122332217Y-92406998D01*
X122325023Y-92337500D01*
X122356546Y-92275145D01*
X122375842Y-92258425D01*
X122398026Y-92242891D01*
X122561401Y-92128495D01*
X122728495Y-91961401D01*
X122858425Y-91775842D01*
X122913002Y-91732217D01*
X122982500Y-91725023D01*
X123044855Y-91756546D01*
G37*
G04 #@! TD.AperFunction*
G04 #@! TA.AperFunction,Conductor*
G36*
X123044855Y-89215673D02*
G01*
X123061575Y-89234968D01*
X123191894Y-89421082D01*
X123358917Y-89588105D01*
X123544595Y-89718119D01*
X123588219Y-89772696D01*
X123595412Y-89842195D01*
X123563890Y-89904549D01*
X123544595Y-89921269D01*
X123358594Y-90051508D01*
X123191505Y-90218597D01*
X123061575Y-90404158D01*
X123006998Y-90447783D01*
X122937500Y-90454977D01*
X122875145Y-90423454D01*
X122858425Y-90404158D01*
X122728494Y-90218597D01*
X122561402Y-90051506D01*
X122561401Y-90051505D01*
X122375405Y-89921269D01*
X122331781Y-89866692D01*
X122324588Y-89797193D01*
X122356110Y-89734839D01*
X122375405Y-89718119D01*
X122561082Y-89588105D01*
X122728105Y-89421082D01*
X122858425Y-89234968D01*
X122913002Y-89191344D01*
X122982501Y-89184151D01*
X123044855Y-89215673D01*
G37*
G04 #@! TD.AperFunction*
G04 #@! TA.AperFunction,Conductor*
G36*
X123770507Y-88340156D02*
G01*
X123730000Y-88478111D01*
X123730000Y-88621889D01*
X123770507Y-88759844D01*
X123796314Y-88800000D01*
X122123686Y-88800000D01*
X122149493Y-88759844D01*
X122190000Y-88621889D01*
X122190000Y-88478111D01*
X122149493Y-88340156D01*
X122123686Y-88300000D01*
X123796314Y-88300000D01*
X123770507Y-88340156D01*
G37*
G04 #@! TD.AperFunction*
M02*
