M48
; DRILL file {KiCad 7.0.10} date Sat Jun  8 12:41:14 2024
; FORMAT={-:-/ absolute / inch / decimal}
; #@! TF.CreationDate,2024-06-08T12:41:14+01:00
; #@! TF.GenerationSoftware,Kicad,Pcbnew,7.0.10
; #@! TF.FileFunction,Plated,1,2,PTH
FMAT,2
INCH
; #@! TA.AperFunction,Plated,PTH,ViaDrill
T1C0.0157
; #@! TA.AperFunction,Plated,PTH,ComponentDrill
T2C0.0157
; #@! TA.AperFunction,Plated,PTH,ComponentDrill
T3C0.0394
; #@! TA.AperFunction,Plated,PTH,ComponentDrill
T4C0.0866
%
G90
G05
T1
X4.1831Y-3.7106
X4.1831Y-4.1535
X4.961Y-4.0547
T2
X4.3642Y-3.4449
X4.3642Y-4.4291
X4.3832Y-3.3989
X4.3832Y-3.4908
X4.3832Y-4.3832
X4.3832Y-4.4751
X4.4291Y-3.3799
X4.4291Y-3.5098
X4.4291Y-4.3642
X4.4291Y-4.4941
X4.4751Y-3.3989
X4.4751Y-3.4908
X4.4751Y-4.3832
X4.4751Y-4.4751
X4.4941Y-3.4449
X4.4941Y-4.4291
T3
X4.7909Y-3.4862
X4.7909Y-3.5862
X4.7909Y-3.6862
X4.7909Y-3.7862
X4.7909Y-3.8862
X4.7909Y-3.9862
X4.7909Y-4.0862
X4.7909Y-4.1862
X4.7909Y-4.2862
X4.7909Y-4.3862
X4.8909Y-3.4862
X4.8909Y-3.5862
X4.8909Y-3.6862
X4.8909Y-3.7862
X4.8909Y-3.8862
X4.8909Y-3.9862
X4.8909Y-4.0862
X4.8909Y-4.1862
X4.8909Y-4.2862
X4.8909Y-4.3862
T4
X4.4291Y-3.4449
X4.4291Y-4.4291
M30
