G04 #@! TF.GenerationSoftware,KiCad,Pcbnew,7.0.10*
G04 #@! TF.CreationDate,2024-06-08T12:41:12+01:00*
G04 #@! TF.ProjectId,hexpansion,68657870-616e-4736-996f-6e2e6b696361,rev?*
G04 #@! TF.SameCoordinates,Original*
G04 #@! TF.FileFunction,Copper,L2,Bot*
G04 #@! TF.FilePolarity,Positive*
%FSLAX46Y46*%
G04 Gerber Fmt 4.6, Leading zero omitted, Abs format (unit mm)*
G04 Created by KiCad (PCBNEW 7.0.10) date 2024-06-08 12:41:12*
%MOMM*%
%LPD*%
G01*
G04 APERTURE LIST*
G04 Aperture macros list*
%AMRoundRect*
0 Rectangle with rounded corners*
0 $1 Rounding radius*
0 $2 $3 $4 $5 $6 $7 $8 $9 X,Y pos of 4 corners*
0 Add a 4 corners polygon primitive as box body*
4,1,4,$2,$3,$4,$5,$6,$7,$8,$9,$2,$3,0*
0 Add four circle primitives for the rounded corners*
1,1,$1+$1,$2,$3*
1,1,$1+$1,$4,$5*
1,1,$1+$1,$6,$7*
1,1,$1+$1,$8,$9*
0 Add four rect primitives between the rounded corners*
20,1,$1+$1,$2,$3,$4,$5,0*
20,1,$1+$1,$4,$5,$6,$7,0*
20,1,$1+$1,$6,$7,$8,$9,0*
20,1,$1+$1,$8,$9,$2,$3,0*%
G04 Aperture macros list end*
G04 #@! TA.AperFunction,SMDPad,CuDef*
%ADD10RoundRect,0.150000X-1.600000X-0.150000X1.600000X-0.150000X1.600000X0.150000X-1.600000X0.150000X0*%
G04 #@! TD*
G04 #@! TA.AperFunction,SMDPad,CuDef*
%ADD11RoundRect,0.150000X-1.200000X-0.150000X1.200000X-0.150000X1.200000X0.150000X-1.200000X0.150000X0*%
G04 #@! TD*
G04 #@! TA.AperFunction,ComponentPad*
%ADD12C,0.700000*%
G04 #@! TD*
G04 #@! TA.AperFunction,ComponentPad*
%ADD13C,4.400000*%
G04 #@! TD*
G04 #@! TA.AperFunction,ComponentPad*
%ADD14R,1.700000X1.700000*%
G04 #@! TD*
G04 #@! TA.AperFunction,ComponentPad*
%ADD15O,1.700000X1.700000*%
G04 #@! TD*
G04 #@! TA.AperFunction,ViaPad*
%ADD16C,0.800000*%
G04 #@! TD*
G04 #@! TA.AperFunction,Conductor*
%ADD17C,0.250000*%
G04 #@! TD*
G04 APERTURE END LIST*
D10*
X100500000Y-103400000D03*
D11*
X100900000Y-102600000D03*
X100900000Y-101800000D03*
X100900000Y-101000000D03*
X100900000Y-100200000D03*
X100900000Y-99400000D03*
X100900000Y-98600000D03*
X100900000Y-97800000D03*
D10*
X100500000Y-97000000D03*
X100500000Y-96200000D03*
D12*
X110850000Y-87500000D03*
X111333274Y-86333274D03*
X111333274Y-88666726D03*
X112500000Y-85850000D03*
D13*
X112500000Y-87500000D03*
D12*
X112500000Y-89150000D03*
X113666726Y-86333274D03*
X113666726Y-88666726D03*
X114150000Y-87500000D03*
D14*
X124230000Y-111410000D03*
D15*
X121690000Y-111410000D03*
X124230000Y-108870000D03*
X121690000Y-108870000D03*
X124230000Y-106330000D03*
X121690000Y-106330000D03*
X124230000Y-103790000D03*
X121690000Y-103790000D03*
X124230000Y-101250000D03*
X121690000Y-101250000D03*
X124230000Y-98710000D03*
X121690000Y-98710000D03*
X124230000Y-96170000D03*
X121690000Y-96170000D03*
X124230000Y-93630000D03*
X121690000Y-93630000D03*
X124230000Y-91090000D03*
X121690000Y-91090000D03*
X124230000Y-88550000D03*
X121690000Y-88550000D03*
D12*
X110850000Y-112500000D03*
X111333274Y-111333274D03*
X111333274Y-113666726D03*
X112500000Y-110850000D03*
D13*
X112500000Y-112500000D03*
D12*
X112500000Y-114150000D03*
X113666726Y-111333274D03*
X113666726Y-113666726D03*
X114150000Y-112500000D03*
D16*
X106250000Y-105500000D03*
X106250000Y-94250000D03*
X126010000Y-102990000D03*
D17*
X112450000Y-103400000D02*
X100500000Y-103400000D01*
X121690000Y-111410000D02*
X120620000Y-111410000D01*
X120540000Y-111490000D02*
X112450000Y-103400000D01*
X119360000Y-88550000D02*
X111710000Y-96200000D01*
X120620000Y-111410000D02*
X120540000Y-111490000D01*
X111710000Y-96200000D02*
X100500000Y-96200000D01*
X121690000Y-88550000D02*
X119360000Y-88550000D01*
X123055000Y-107695000D02*
X120735000Y-107695000D01*
X120735000Y-107695000D02*
X120730000Y-107700000D01*
X124230000Y-108870000D02*
X123055000Y-107695000D01*
X115630000Y-102600000D02*
X100900000Y-102600000D01*
X120730000Y-107700000D02*
X115630000Y-102600000D01*
X124230000Y-106330000D02*
X122940000Y-105040000D01*
X120420000Y-105040000D02*
X117180000Y-101800000D01*
X117180000Y-101800000D02*
X100900000Y-101800000D01*
X122940000Y-105040000D02*
X120420000Y-105040000D01*
X122440000Y-102480000D02*
X120960000Y-102480000D01*
X123750000Y-103790000D02*
X122440000Y-102480000D01*
X124230000Y-103790000D02*
X123750000Y-103790000D01*
X120960000Y-102480000D02*
X119480000Y-101000000D01*
X119480000Y-101000000D02*
X100900000Y-101000000D01*
X124230000Y-101250000D02*
X122940000Y-99960000D01*
X122940000Y-99960000D02*
X103500000Y-99960000D01*
X103260000Y-100200000D02*
X100900000Y-100200000D01*
X103500000Y-99960000D02*
X103260000Y-100200000D01*
X124230000Y-95920000D02*
X123230000Y-94920000D01*
X116250000Y-98600000D02*
X100900000Y-98600000D01*
X123230000Y-94920000D02*
X119930000Y-94920000D01*
X119930000Y-94920000D02*
X116250000Y-98600000D01*
X124230000Y-96170000D02*
X124230000Y-95920000D01*
X114520000Y-97800000D02*
X100900000Y-97800000D01*
X122940000Y-92340000D02*
X119980000Y-92340000D01*
X119980000Y-92340000D02*
X114520000Y-97800000D01*
X124230000Y-93630000D02*
X122940000Y-92340000D01*
X113280000Y-97000000D02*
X100500000Y-97000000D01*
X124230000Y-91090000D02*
X122990000Y-89850000D01*
X120430000Y-89850000D02*
X113280000Y-97000000D01*
X122990000Y-89850000D02*
X120430000Y-89850000D01*
X122326396Y-101250000D02*
X123576396Y-102500000D01*
X123576396Y-102500000D02*
X125520000Y-102500000D01*
X121690000Y-101250000D02*
X122326396Y-101250000D01*
X125520000Y-102500000D02*
X126010000Y-102990000D01*
X120400000Y-97410000D02*
X118410000Y-99400000D01*
X124230000Y-98710000D02*
X122930000Y-97410000D01*
X122930000Y-97410000D02*
X120400000Y-97410000D01*
X118410000Y-99400000D02*
X100900000Y-99400000D01*
G04 #@! TA.AperFunction,Conductor*
G36*
X116062287Y-81685447D02*
G01*
X116130292Y-81691396D01*
X116145257Y-81693633D01*
X116251040Y-81716118D01*
X116257307Y-81717622D01*
X116316718Y-81733541D01*
X116335047Y-81740032D01*
X116401389Y-81769570D01*
X116472934Y-81801424D01*
X116474901Y-81802320D01*
X116484601Y-81806843D01*
X116494830Y-81811613D01*
X116494835Y-81811615D01*
X116504423Y-81816606D01*
X131033431Y-90204934D01*
X131470530Y-90457293D01*
X131470533Y-90457295D01*
X131495035Y-90471441D01*
X131504150Y-90477248D01*
X131522490Y-90490090D01*
X131524230Y-90491331D01*
X131645878Y-90579683D01*
X131660691Y-90592333D01*
X131704844Y-90636488D01*
X131709306Y-90641189D01*
X131780949Y-90720762D01*
X131790373Y-90732611D01*
X131829951Y-90789138D01*
X131835763Y-90798260D01*
X131886818Y-90886697D01*
X131891804Y-90896277D01*
X131920967Y-90958824D01*
X131926515Y-90972910D01*
X131959597Y-91074739D01*
X131961441Y-91080965D01*
X131977604Y-91141298D01*
X131981149Y-91160430D01*
X131996661Y-91308085D01*
X131996868Y-91310234D01*
X131999017Y-91334797D01*
X131999489Y-91345604D01*
X131999489Y-108654820D01*
X131999016Y-108665637D01*
X131997064Y-108687928D01*
X131996860Y-108690052D01*
X131981173Y-108839542D01*
X131977624Y-108858699D01*
X131961435Y-108919108D01*
X131959590Y-108925334D01*
X131926540Y-109027035D01*
X131920991Y-109041120D01*
X131891779Y-109103759D01*
X131886784Y-109113354D01*
X131835792Y-109201668D01*
X131829980Y-109210791D01*
X131790342Y-109267396D01*
X131780916Y-109279244D01*
X131709350Y-109358721D01*
X131704879Y-109363432D01*
X131660634Y-109407672D01*
X131645841Y-109420306D01*
X131525982Y-109507384D01*
X131524223Y-109508639D01*
X131503742Y-109522980D01*
X131494618Y-109528792D01*
X116504426Y-118183384D01*
X116494827Y-118188381D01*
X116474903Y-118197671D01*
X116472938Y-118198566D01*
X116335051Y-118259958D01*
X116316708Y-118266454D01*
X116257329Y-118282364D01*
X116251017Y-118283879D01*
X116145262Y-118306358D01*
X116130291Y-118308596D01*
X116062287Y-118314547D01*
X116051477Y-118315019D01*
X115948512Y-118315019D01*
X115937703Y-118314547D01*
X115934081Y-118314230D01*
X115869698Y-118308596D01*
X115854727Y-118306358D01*
X115748971Y-118283879D01*
X115742659Y-118282364D01*
X115683280Y-118266454D01*
X115664937Y-118259958D01*
X115527054Y-118198568D01*
X115525087Y-118197672D01*
X115505155Y-118188378D01*
X115495558Y-118183382D01*
X105651654Y-112500000D01*
X109795065Y-112500000D01*
X109814786Y-112826038D01*
X109873667Y-113147341D01*
X109970835Y-113459164D01*
X109970839Y-113459175D01*
X110104897Y-113757041D01*
X110104898Y-113757043D01*
X110273881Y-114036576D01*
X110421476Y-114224968D01*
X110934069Y-113712375D01*
X111133274Y-113712375D01*
X111172887Y-113794631D01*
X111244266Y-113851553D01*
X111310742Y-113866726D01*
X111355806Y-113866726D01*
X111422282Y-113851553D01*
X111493661Y-113794631D01*
X111533274Y-113712375D01*
X111533274Y-113621077D01*
X111493661Y-113538821D01*
X111422282Y-113481899D01*
X111355806Y-113466726D01*
X111310742Y-113466726D01*
X111244266Y-113481899D01*
X111172887Y-113538821D01*
X111133274Y-113621077D01*
X111133274Y-113712375D01*
X110934069Y-113712375D01*
X111564210Y-113082234D01*
X111664894Y-113223624D01*
X111816932Y-113368592D01*
X111919222Y-113434330D01*
X110775030Y-114578522D01*
X110775030Y-114578523D01*
X110963423Y-114726118D01*
X111242956Y-114895101D01*
X111242958Y-114895102D01*
X111540824Y-115029160D01*
X111540835Y-115029164D01*
X111852658Y-115126332D01*
X112173961Y-115185213D01*
X112500000Y-115204934D01*
X112826038Y-115185213D01*
X113147341Y-115126332D01*
X113459164Y-115029164D01*
X113459175Y-115029160D01*
X113757041Y-114895102D01*
X113757043Y-114895101D01*
X114036586Y-114726112D01*
X114224968Y-114578523D01*
X114224968Y-114578522D01*
X113358822Y-113712375D01*
X113466726Y-113712375D01*
X113506339Y-113794631D01*
X113577718Y-113851553D01*
X113644194Y-113866726D01*
X113689258Y-113866726D01*
X113755734Y-113851553D01*
X113827113Y-113794631D01*
X113866726Y-113712375D01*
X113866726Y-113621077D01*
X113827113Y-113538821D01*
X113755734Y-113481899D01*
X113689258Y-113466726D01*
X113644194Y-113466726D01*
X113577718Y-113481899D01*
X113506339Y-113538821D01*
X113466726Y-113621077D01*
X113466726Y-113712375D01*
X113358822Y-113712375D01*
X113083306Y-113436859D01*
X113097410Y-113429589D01*
X113262540Y-113299729D01*
X113400110Y-113140965D01*
X113434665Y-113081112D01*
X114578522Y-114224968D01*
X114578523Y-114224968D01*
X114726112Y-114036586D01*
X114895101Y-113757043D01*
X114895102Y-113757041D01*
X115029160Y-113459175D01*
X115029164Y-113459164D01*
X115126332Y-113147341D01*
X115185213Y-112826038D01*
X115204934Y-112500000D01*
X115185213Y-112173961D01*
X115126332Y-111852658D01*
X115029164Y-111540835D01*
X115029160Y-111540824D01*
X114895102Y-111242958D01*
X114895101Y-111242956D01*
X114726118Y-110963423D01*
X114578522Y-110775030D01*
X113435788Y-111917764D01*
X113335106Y-111776376D01*
X113183068Y-111631408D01*
X113080776Y-111565669D01*
X113267522Y-111378923D01*
X113466726Y-111378923D01*
X113506339Y-111461179D01*
X113577718Y-111518101D01*
X113644194Y-111533274D01*
X113689258Y-111533274D01*
X113755734Y-111518101D01*
X113827113Y-111461179D01*
X113866726Y-111378923D01*
X113866726Y-111287625D01*
X113827113Y-111205369D01*
X113755734Y-111148447D01*
X113689258Y-111133274D01*
X113644194Y-111133274D01*
X113577718Y-111148447D01*
X113506339Y-111205369D01*
X113466726Y-111287625D01*
X113466726Y-111378923D01*
X113267522Y-111378923D01*
X114224968Y-110421476D01*
X114036576Y-110273881D01*
X113757043Y-110104898D01*
X113757041Y-110104897D01*
X113459175Y-109970839D01*
X113459164Y-109970835D01*
X113147341Y-109873667D01*
X112826038Y-109814786D01*
X112500000Y-109795065D01*
X112173961Y-109814786D01*
X111852658Y-109873667D01*
X111540835Y-109970835D01*
X111540824Y-109970839D01*
X111242958Y-110104897D01*
X111242956Y-110104898D01*
X110963422Y-110273881D01*
X110963416Y-110273886D01*
X110775030Y-110421474D01*
X110775029Y-110421476D01*
X111916693Y-111563140D01*
X111902590Y-111570411D01*
X111737460Y-111700271D01*
X111599890Y-111859035D01*
X111565334Y-111918887D01*
X111025370Y-111378923D01*
X111133274Y-111378923D01*
X111172887Y-111461179D01*
X111244266Y-111518101D01*
X111310742Y-111533274D01*
X111355806Y-111533274D01*
X111422282Y-111518101D01*
X111493661Y-111461179D01*
X111533274Y-111378923D01*
X111533274Y-111287625D01*
X111493661Y-111205369D01*
X111422282Y-111148447D01*
X111355806Y-111133274D01*
X111310742Y-111133274D01*
X111244266Y-111148447D01*
X111172887Y-111205369D01*
X111133274Y-111287625D01*
X111133274Y-111378923D01*
X111025370Y-111378923D01*
X110421476Y-110775029D01*
X110421474Y-110775030D01*
X110273886Y-110963416D01*
X110273881Y-110963422D01*
X110104898Y-111242956D01*
X110104897Y-111242958D01*
X109970839Y-111540824D01*
X109970835Y-111540835D01*
X109873667Y-111852658D01*
X109814786Y-112173961D01*
X109795065Y-112500000D01*
X105651654Y-112500000D01*
X100504941Y-109528543D01*
X100495820Y-109522732D01*
X100478003Y-109510257D01*
X100476223Y-109508988D01*
X100353764Y-109419987D01*
X100338986Y-109407363D01*
X100296161Y-109364540D01*
X100291693Y-109359832D01*
X100218662Y-109278728D01*
X100209242Y-109266886D01*
X100170497Y-109211556D01*
X100164689Y-109202440D01*
X100164243Y-109201668D01*
X100112778Y-109112534D01*
X100107786Y-109102944D01*
X100079239Y-109041730D01*
X100073690Y-109027645D01*
X100073492Y-109027035D01*
X100039958Y-108923842D01*
X100038131Y-108917675D01*
X100022446Y-108859148D01*
X100018905Y-108840047D01*
X100002860Y-108687448D01*
X100002677Y-108685550D01*
X100000972Y-108666064D01*
X100000500Y-108655258D01*
X100000500Y-106259757D01*
X100001974Y-106240697D01*
X100002023Y-106240382D01*
X100002910Y-106235367D01*
X100013674Y-106181251D01*
X100024796Y-106149180D01*
X100028969Y-106140991D01*
X100036319Y-106128453D01*
X100056271Y-106098592D01*
X100071678Y-106079819D01*
X100079819Y-106071678D01*
X100098592Y-106056271D01*
X100128453Y-106036319D01*
X100140991Y-106028969D01*
X100149180Y-106024796D01*
X100181251Y-106013674D01*
X100235367Y-106002910D01*
X100240366Y-106002025D01*
X100240483Y-106002007D01*
X100240697Y-106001974D01*
X100259757Y-106000500D01*
X104568995Y-106000500D01*
X104660041Y-105982389D01*
X104704328Y-105973580D01*
X104831811Y-105920775D01*
X104946542Y-105844114D01*
X105044114Y-105746542D01*
X105120775Y-105631811D01*
X105173580Y-105504328D01*
X105187161Y-105436051D01*
X105200500Y-105368995D01*
X105200500Y-105231004D01*
X105173581Y-105095677D01*
X105173580Y-105095676D01*
X105173580Y-105095672D01*
X105173578Y-105095667D01*
X105120778Y-104968195D01*
X105120771Y-104968182D01*
X105044114Y-104853458D01*
X105044111Y-104853454D01*
X104946545Y-104755888D01*
X104946541Y-104755885D01*
X104831817Y-104679228D01*
X104831804Y-104679221D01*
X104704332Y-104626421D01*
X104704322Y-104626418D01*
X104568995Y-104599500D01*
X104568993Y-104599500D01*
X104500099Y-104599500D01*
X104389801Y-104599500D01*
X104322762Y-104579815D01*
X104277007Y-104527011D01*
X104265804Y-104476362D01*
X104265398Y-104418022D01*
X104257977Y-103350362D01*
X104277195Y-103283187D01*
X104329680Y-103237066D01*
X104381974Y-103225500D01*
X115319548Y-103225500D01*
X115386587Y-103245185D01*
X115407228Y-103261818D01*
X117834030Y-105688621D01*
X120237606Y-108092197D01*
X120252480Y-108110175D01*
X120257076Y-108116938D01*
X120257077Y-108116939D01*
X120257078Y-108116940D01*
X120298677Y-108153614D01*
X120304356Y-108158947D01*
X120315529Y-108170120D01*
X120328017Y-108179807D01*
X120334008Y-108184763D01*
X120375622Y-108221450D01*
X120375624Y-108221451D01*
X120382074Y-108225835D01*
X120380586Y-108228024D01*
X120422082Y-108267204D01*
X120438887Y-108335022D01*
X120427383Y-108382132D01*
X120416099Y-108406329D01*
X120416094Y-108406344D01*
X120354938Y-108634586D01*
X120354936Y-108634596D01*
X120334341Y-108869999D01*
X120334341Y-108870000D01*
X120354936Y-109105403D01*
X120354938Y-109105413D01*
X120416094Y-109333655D01*
X120416096Y-109333659D01*
X120416097Y-109333663D01*
X120496004Y-109505023D01*
X120515965Y-109547830D01*
X120515967Y-109547834D01*
X120624281Y-109702521D01*
X120651501Y-109741396D01*
X120651506Y-109741402D01*
X120818597Y-109908493D01*
X120818603Y-109908498D01*
X121004594Y-110038730D01*
X121048219Y-110093307D01*
X121055413Y-110162805D01*
X121023890Y-110225160D01*
X121004595Y-110241880D01*
X120818922Y-110371890D01*
X120818920Y-110371891D01*
X120651891Y-110538920D01*
X120651886Y-110538926D01*
X120516400Y-110732420D01*
X120516399Y-110732422D01*
X120416570Y-110946507D01*
X120416567Y-110946513D01*
X120359364Y-111159999D01*
X120359364Y-111160000D01*
X121256314Y-111160000D01*
X121230507Y-111200156D01*
X121190000Y-111338111D01*
X121190000Y-111481889D01*
X121230507Y-111619844D01*
X121256314Y-111660000D01*
X120359364Y-111660000D01*
X120416567Y-111873486D01*
X120416570Y-111873492D01*
X120516399Y-112087578D01*
X120651894Y-112281082D01*
X120818917Y-112448105D01*
X121012421Y-112583600D01*
X121226507Y-112683429D01*
X121226516Y-112683433D01*
X121440000Y-112740634D01*
X121440000Y-111845501D01*
X121547685Y-111894680D01*
X121654237Y-111910000D01*
X121725763Y-111910000D01*
X121832315Y-111894680D01*
X121940000Y-111845501D01*
X121940000Y-112740633D01*
X122153483Y-112683433D01*
X122153492Y-112683429D01*
X122367578Y-112583600D01*
X122561078Y-112448108D01*
X122683521Y-112325665D01*
X122744844Y-112292180D01*
X122814536Y-112297164D01*
X122870470Y-112339035D01*
X122887385Y-112370013D01*
X122936645Y-112502086D01*
X122936649Y-112502093D01*
X123022809Y-112617187D01*
X123022812Y-112617190D01*
X123137906Y-112703350D01*
X123137913Y-112703354D01*
X123272620Y-112753596D01*
X123272627Y-112753598D01*
X123332155Y-112759999D01*
X123332172Y-112760000D01*
X123980000Y-112760000D01*
X123980000Y-111845501D01*
X124087685Y-111894680D01*
X124194237Y-111910000D01*
X124265763Y-111910000D01*
X124372315Y-111894680D01*
X124480000Y-111845501D01*
X124480000Y-112760000D01*
X125127828Y-112760000D01*
X125127844Y-112759999D01*
X125187372Y-112753598D01*
X125187379Y-112753596D01*
X125322086Y-112703354D01*
X125322093Y-112703350D01*
X125437187Y-112617190D01*
X125437190Y-112617187D01*
X125523350Y-112502093D01*
X125523354Y-112502086D01*
X125573596Y-112367379D01*
X125573598Y-112367372D01*
X125579999Y-112307844D01*
X125580000Y-112307827D01*
X125580000Y-111660000D01*
X124663686Y-111660000D01*
X124689493Y-111619844D01*
X124730000Y-111481889D01*
X124730000Y-111338111D01*
X124689493Y-111200156D01*
X124663686Y-111160000D01*
X125580000Y-111160000D01*
X125580000Y-110512172D01*
X125579999Y-110512155D01*
X125573598Y-110452627D01*
X125573596Y-110452620D01*
X125523354Y-110317913D01*
X125523350Y-110317906D01*
X125437190Y-110202812D01*
X125437187Y-110202809D01*
X125322093Y-110116649D01*
X125322088Y-110116646D01*
X125190528Y-110067577D01*
X125134595Y-110025705D01*
X125110178Y-109960241D01*
X125125030Y-109891968D01*
X125146175Y-109863720D01*
X125268495Y-109741401D01*
X125404035Y-109547830D01*
X125503903Y-109333663D01*
X125565063Y-109105408D01*
X125585659Y-108870000D01*
X125565063Y-108634592D01*
X125503903Y-108406337D01*
X125404035Y-108192171D01*
X125398855Y-108184772D01*
X125268494Y-107998597D01*
X125101402Y-107831506D01*
X125101396Y-107831501D01*
X124915842Y-107701575D01*
X124872217Y-107646998D01*
X124865023Y-107577500D01*
X124896546Y-107515145D01*
X124915842Y-107498425D01*
X124938026Y-107482891D01*
X125101401Y-107368495D01*
X125268495Y-107201401D01*
X125404035Y-107007830D01*
X125503903Y-106793663D01*
X125565063Y-106565408D01*
X125585659Y-106330000D01*
X125565063Y-106094592D01*
X125503903Y-105866337D01*
X125404035Y-105652171D01*
X125391035Y-105633604D01*
X125268494Y-105458597D01*
X125101402Y-105291506D01*
X125101396Y-105291501D01*
X124915842Y-105161575D01*
X124872217Y-105106998D01*
X124865023Y-105037500D01*
X124896546Y-104975145D01*
X124915842Y-104958425D01*
X125065750Y-104853458D01*
X125101401Y-104828495D01*
X125268495Y-104661401D01*
X125404035Y-104467830D01*
X125503903Y-104253663D01*
X125565063Y-104025408D01*
X125570865Y-103959082D01*
X125596317Y-103894017D01*
X125652908Y-103853038D01*
X125722669Y-103849159D01*
X125728461Y-103850775D01*
X125730196Y-103851143D01*
X125730197Y-103851144D01*
X125915354Y-103890500D01*
X125915355Y-103890500D01*
X126104644Y-103890500D01*
X126104646Y-103890500D01*
X126289803Y-103851144D01*
X126462730Y-103774151D01*
X126615871Y-103662888D01*
X126742533Y-103522216D01*
X126837179Y-103358284D01*
X126895674Y-103178256D01*
X126915460Y-102990000D01*
X126895674Y-102801744D01*
X126837179Y-102621716D01*
X126742533Y-102457784D01*
X126615871Y-102317112D01*
X126615870Y-102317111D01*
X126462734Y-102205851D01*
X126462729Y-102205848D01*
X126289807Y-102128857D01*
X126289802Y-102128855D01*
X126144001Y-102097865D01*
X126104646Y-102089500D01*
X126104645Y-102089500D01*
X126045699Y-102089500D01*
X125978660Y-102069815D01*
X125960814Y-102055891D01*
X125956775Y-102052098D01*
X125953977Y-102049386D01*
X125934477Y-102029885D01*
X125934471Y-102029880D01*
X125931286Y-102027409D01*
X125922434Y-102019848D01*
X125890582Y-101989938D01*
X125890580Y-101989936D01*
X125890577Y-101989935D01*
X125873029Y-101980288D01*
X125856763Y-101969604D01*
X125840932Y-101957324D01*
X125800849Y-101939978D01*
X125790363Y-101934841D01*
X125752094Y-101913803D01*
X125752092Y-101913802D01*
X125732693Y-101908822D01*
X125714281Y-101902518D01*
X125695898Y-101894562D01*
X125695892Y-101894560D01*
X125652760Y-101887729D01*
X125641322Y-101885361D01*
X125591463Y-101872560D01*
X125592285Y-101869356D01*
X125542064Y-101847380D01*
X125503360Y-101789210D01*
X125502248Y-101719349D01*
X125503057Y-101716818D01*
X125503901Y-101713666D01*
X125503903Y-101713663D01*
X125565063Y-101485408D01*
X125585659Y-101250000D01*
X125565063Y-101014592D01*
X125503903Y-100786337D01*
X125404035Y-100572171D01*
X125268495Y-100378599D01*
X125268494Y-100378597D01*
X125101402Y-100211506D01*
X125101396Y-100211501D01*
X124915842Y-100081575D01*
X124872217Y-100026998D01*
X124865023Y-99957500D01*
X124896546Y-99895145D01*
X124915842Y-99878425D01*
X124938026Y-99862891D01*
X125101401Y-99748495D01*
X125268495Y-99581401D01*
X125404035Y-99387830D01*
X125503903Y-99173663D01*
X125565063Y-98945408D01*
X125585659Y-98710000D01*
X125565063Y-98474592D01*
X125503903Y-98246337D01*
X125404035Y-98032171D01*
X125361670Y-97971666D01*
X125268494Y-97838597D01*
X125101402Y-97671506D01*
X125101396Y-97671501D01*
X124915842Y-97541575D01*
X124872217Y-97486998D01*
X124865023Y-97417500D01*
X124896546Y-97355145D01*
X124915842Y-97338425D01*
X124938026Y-97322891D01*
X125101401Y-97208495D01*
X125268495Y-97041401D01*
X125404035Y-96847830D01*
X125503903Y-96633663D01*
X125565063Y-96405408D01*
X125585659Y-96170000D01*
X125565063Y-95934592D01*
X125503903Y-95706337D01*
X125404035Y-95492171D01*
X125380240Y-95458187D01*
X125268494Y-95298597D01*
X125101402Y-95131506D01*
X125101396Y-95131501D01*
X124915842Y-95001575D01*
X124872217Y-94946998D01*
X124865023Y-94877500D01*
X124896546Y-94815145D01*
X124915842Y-94798425D01*
X125057121Y-94699500D01*
X125101401Y-94668495D01*
X125268495Y-94501401D01*
X125404035Y-94307830D01*
X125503903Y-94093663D01*
X125565063Y-93865408D01*
X125585659Y-93630000D01*
X125565063Y-93394592D01*
X125503903Y-93166337D01*
X125404035Y-92952171D01*
X125268495Y-92758599D01*
X125268494Y-92758597D01*
X125101402Y-92591506D01*
X125101396Y-92591501D01*
X124915842Y-92461575D01*
X124872217Y-92406998D01*
X124865023Y-92337500D01*
X124896546Y-92275145D01*
X124915842Y-92258425D01*
X124938026Y-92242891D01*
X125101401Y-92128495D01*
X125268495Y-91961401D01*
X125404035Y-91767830D01*
X125503903Y-91553663D01*
X125565063Y-91325408D01*
X125585659Y-91090000D01*
X125565063Y-90854592D01*
X125503903Y-90626337D01*
X125404035Y-90412171D01*
X125268495Y-90218599D01*
X125268494Y-90218597D01*
X125101402Y-90051506D01*
X125101401Y-90051505D01*
X124915405Y-89921269D01*
X124871781Y-89866692D01*
X124864588Y-89797193D01*
X124896110Y-89734839D01*
X124915405Y-89718119D01*
X125101082Y-89588105D01*
X125268105Y-89421082D01*
X125403600Y-89227578D01*
X125503429Y-89013492D01*
X125503432Y-89013486D01*
X125560636Y-88800000D01*
X124663686Y-88800000D01*
X124689493Y-88759844D01*
X124730000Y-88621889D01*
X124730000Y-88478111D01*
X124689493Y-88340156D01*
X124663686Y-88300000D01*
X125560636Y-88300000D01*
X125560635Y-88299999D01*
X125503432Y-88086513D01*
X125503429Y-88086507D01*
X125403600Y-87872422D01*
X125403599Y-87872420D01*
X125268113Y-87678926D01*
X125268108Y-87678920D01*
X125101082Y-87511894D01*
X124907578Y-87376399D01*
X124693492Y-87276570D01*
X124693486Y-87276567D01*
X124480000Y-87219364D01*
X124480000Y-88114498D01*
X124372315Y-88065320D01*
X124265763Y-88050000D01*
X124194237Y-88050000D01*
X124087685Y-88065320D01*
X123980000Y-88114498D01*
X123980000Y-87219364D01*
X123979999Y-87219364D01*
X123766513Y-87276567D01*
X123766507Y-87276570D01*
X123552422Y-87376399D01*
X123552420Y-87376400D01*
X123358926Y-87511886D01*
X123358920Y-87511891D01*
X123191891Y-87678920D01*
X123191890Y-87678922D01*
X123061575Y-87865031D01*
X123006998Y-87908655D01*
X122937499Y-87915848D01*
X122875145Y-87884326D01*
X122858425Y-87865031D01*
X122728109Y-87678922D01*
X122728108Y-87678920D01*
X122561082Y-87511894D01*
X122367578Y-87376399D01*
X122153492Y-87276570D01*
X122153486Y-87276567D01*
X121940000Y-87219364D01*
X121940000Y-88114498D01*
X121832315Y-88065320D01*
X121725763Y-88050000D01*
X121654237Y-88050000D01*
X121547685Y-88065320D01*
X121440000Y-88114498D01*
X121440000Y-87219364D01*
X121439999Y-87219364D01*
X121226513Y-87276567D01*
X121226507Y-87276570D01*
X121012422Y-87376399D01*
X121012420Y-87376400D01*
X120818926Y-87511886D01*
X120818920Y-87511891D01*
X120651891Y-87678920D01*
X120651886Y-87678926D01*
X120516400Y-87872420D01*
X120516399Y-87872422D01*
X120416570Y-88086507D01*
X120416567Y-88086513D01*
X120359364Y-88299999D01*
X120359364Y-88300000D01*
X121256314Y-88300000D01*
X121230507Y-88340156D01*
X121190000Y-88478111D01*
X121190000Y-88621889D01*
X121230507Y-88759844D01*
X121256314Y-88800000D01*
X120359364Y-88800000D01*
X120416567Y-89013486D01*
X120416571Y-89013497D01*
X120434119Y-89051128D01*
X120444611Y-89120205D01*
X120416091Y-89183989D01*
X120357614Y-89222228D01*
X120338956Y-89225288D01*
X120339080Y-89226070D01*
X120331373Y-89227290D01*
X120312129Y-89232881D01*
X120293079Y-89236825D01*
X120273211Y-89239334D01*
X120273210Y-89239334D01*
X120232599Y-89255413D01*
X120221554Y-89259194D01*
X120179614Y-89271379D01*
X120179610Y-89271381D01*
X120162366Y-89281579D01*
X120144905Y-89290133D01*
X120126274Y-89297510D01*
X120126262Y-89297517D01*
X120090933Y-89323185D01*
X120081173Y-89329596D01*
X120043580Y-89351829D01*
X120029414Y-89365995D01*
X120014624Y-89378627D01*
X119998414Y-89390404D01*
X119998411Y-89390407D01*
X119970573Y-89424058D01*
X119962711Y-89432697D01*
X113057228Y-96338181D01*
X112995905Y-96371666D01*
X112969547Y-96374500D01*
X104332626Y-96374500D01*
X104265587Y-96354815D01*
X104219832Y-96302011D01*
X104208629Y-96251362D01*
X104203582Y-95525362D01*
X104222800Y-95458187D01*
X104275285Y-95412066D01*
X104327579Y-95400500D01*
X104568995Y-95400500D01*
X104660041Y-95382389D01*
X104704328Y-95373580D01*
X104831811Y-95320775D01*
X104946542Y-95244114D01*
X105044114Y-95146542D01*
X105120775Y-95031811D01*
X105173580Y-94904328D01*
X105200500Y-94768993D01*
X105200500Y-94700000D01*
X105200500Y-94699500D01*
X105200500Y-94631007D01*
X105200500Y-94631004D01*
X105173581Y-94495677D01*
X105173580Y-94495676D01*
X105173580Y-94495672D01*
X105173578Y-94495667D01*
X105120778Y-94368195D01*
X105120771Y-94368182D01*
X105044114Y-94253458D01*
X105044111Y-94253454D01*
X104946545Y-94155888D01*
X104946541Y-94155885D01*
X104831817Y-94079228D01*
X104831804Y-94079221D01*
X104704332Y-94026421D01*
X104704322Y-94026418D01*
X104568995Y-93999500D01*
X104568993Y-93999500D01*
X104500099Y-93999500D01*
X100259760Y-93999500D01*
X100240359Y-93997973D01*
X100240051Y-93997924D01*
X100235294Y-93997074D01*
X100181264Y-93986327D01*
X100149167Y-93975196D01*
X100141017Y-93971043D01*
X100128437Y-93963669D01*
X100098597Y-93943730D01*
X100079808Y-93928310D01*
X100071688Y-93920190D01*
X100056268Y-93901401D01*
X100036329Y-93871561D01*
X100028961Y-93858993D01*
X100024799Y-93850823D01*
X100013673Y-93818741D01*
X100002913Y-93764649D01*
X100002050Y-93759790D01*
X100001996Y-93759449D01*
X100000500Y-93740247D01*
X100000500Y-91345168D01*
X100000972Y-91334359D01*
X100001756Y-91325403D01*
X100002928Y-91312007D01*
X100003114Y-91310070D01*
X100018818Y-91160435D01*
X100022362Y-91141305D01*
X100038566Y-91080841D01*
X100040379Y-91074723D01*
X100073459Y-90972929D01*
X100078995Y-90958876D01*
X100108213Y-90896225D01*
X100113183Y-90886677D01*
X100164209Y-90798306D01*
X100170010Y-90789202D01*
X100187857Y-90763716D01*
X100209656Y-90732585D01*
X100219060Y-90720764D01*
X100290669Y-90641239D01*
X100295083Y-90636588D01*
X100339367Y-90592307D01*
X100354124Y-90579703D01*
X100474206Y-90492463D01*
X100475699Y-90491399D01*
X100496259Y-90477003D01*
X100505338Y-90471220D01*
X105651641Y-87500000D01*
X109795065Y-87500000D01*
X109814786Y-87826038D01*
X109873667Y-88147341D01*
X109970835Y-88459164D01*
X109970839Y-88459175D01*
X110104897Y-88757041D01*
X110104898Y-88757043D01*
X110273881Y-89036576D01*
X110421476Y-89224968D01*
X110934069Y-88712375D01*
X111133274Y-88712375D01*
X111172887Y-88794631D01*
X111244266Y-88851553D01*
X111310742Y-88866726D01*
X111355806Y-88866726D01*
X111422282Y-88851553D01*
X111493661Y-88794631D01*
X111533274Y-88712375D01*
X111533274Y-88621077D01*
X111493661Y-88538821D01*
X111422282Y-88481899D01*
X111355806Y-88466726D01*
X111310742Y-88466726D01*
X111244266Y-88481899D01*
X111172887Y-88538821D01*
X111133274Y-88621077D01*
X111133274Y-88712375D01*
X110934069Y-88712375D01*
X111564210Y-88082234D01*
X111664894Y-88223624D01*
X111816932Y-88368592D01*
X111919222Y-88434330D01*
X110775030Y-89578522D01*
X110775030Y-89578523D01*
X110963423Y-89726118D01*
X111242956Y-89895101D01*
X111242958Y-89895102D01*
X111540824Y-90029160D01*
X111540835Y-90029164D01*
X111852658Y-90126332D01*
X112173961Y-90185213D01*
X112500000Y-90204934D01*
X112826038Y-90185213D01*
X113147341Y-90126332D01*
X113459164Y-90029164D01*
X113459175Y-90029160D01*
X113757041Y-89895102D01*
X113757043Y-89895101D01*
X114036586Y-89726112D01*
X114224968Y-89578523D01*
X114224968Y-89578522D01*
X113358822Y-88712375D01*
X113466726Y-88712375D01*
X113506339Y-88794631D01*
X113577718Y-88851553D01*
X113644194Y-88866726D01*
X113689258Y-88866726D01*
X113755734Y-88851553D01*
X113827113Y-88794631D01*
X113866726Y-88712375D01*
X113866726Y-88621077D01*
X113827113Y-88538821D01*
X113755734Y-88481899D01*
X113689258Y-88466726D01*
X113644194Y-88466726D01*
X113577718Y-88481899D01*
X113506339Y-88538821D01*
X113466726Y-88621077D01*
X113466726Y-88712375D01*
X113358822Y-88712375D01*
X113083306Y-88436859D01*
X113097410Y-88429589D01*
X113262540Y-88299729D01*
X113400110Y-88140965D01*
X113434665Y-88081112D01*
X114578522Y-89224968D01*
X114578523Y-89224968D01*
X114726112Y-89036586D01*
X114895101Y-88757043D01*
X114895102Y-88757041D01*
X115029160Y-88459175D01*
X115029164Y-88459164D01*
X115126332Y-88147341D01*
X115185213Y-87826038D01*
X115204934Y-87500000D01*
X115185213Y-87173961D01*
X115126332Y-86852658D01*
X115029164Y-86540835D01*
X115029160Y-86540824D01*
X114895102Y-86242958D01*
X114895101Y-86242956D01*
X114726118Y-85963423D01*
X114578522Y-85775030D01*
X113435788Y-86917764D01*
X113335106Y-86776376D01*
X113183068Y-86631408D01*
X113080776Y-86565669D01*
X113267522Y-86378923D01*
X113466726Y-86378923D01*
X113506339Y-86461179D01*
X113577718Y-86518101D01*
X113644194Y-86533274D01*
X113689258Y-86533274D01*
X113755734Y-86518101D01*
X113827113Y-86461179D01*
X113866726Y-86378923D01*
X113866726Y-86287625D01*
X113827113Y-86205369D01*
X113755734Y-86148447D01*
X113689258Y-86133274D01*
X113644194Y-86133274D01*
X113577718Y-86148447D01*
X113506339Y-86205369D01*
X113466726Y-86287625D01*
X113466726Y-86378923D01*
X113267522Y-86378923D01*
X114224968Y-85421476D01*
X114036576Y-85273881D01*
X113757043Y-85104898D01*
X113757041Y-85104897D01*
X113459175Y-84970839D01*
X113459164Y-84970835D01*
X113147341Y-84873667D01*
X112826038Y-84814786D01*
X112500000Y-84795065D01*
X112173961Y-84814786D01*
X111852658Y-84873667D01*
X111540835Y-84970835D01*
X111540824Y-84970839D01*
X111242958Y-85104897D01*
X111242956Y-85104898D01*
X110963422Y-85273881D01*
X110963416Y-85273886D01*
X110775030Y-85421474D01*
X110775029Y-85421476D01*
X111916693Y-86563140D01*
X111902590Y-86570411D01*
X111737460Y-86700271D01*
X111599890Y-86859035D01*
X111565334Y-86918887D01*
X111025370Y-86378923D01*
X111133274Y-86378923D01*
X111172887Y-86461179D01*
X111244266Y-86518101D01*
X111310742Y-86533274D01*
X111355806Y-86533274D01*
X111422282Y-86518101D01*
X111493661Y-86461179D01*
X111533274Y-86378923D01*
X111533274Y-86287625D01*
X111493661Y-86205369D01*
X111422282Y-86148447D01*
X111355806Y-86133274D01*
X111310742Y-86133274D01*
X111244266Y-86148447D01*
X111172887Y-86205369D01*
X111133274Y-86287625D01*
X111133274Y-86378923D01*
X111025370Y-86378923D01*
X110421476Y-85775029D01*
X110421474Y-85775030D01*
X110273886Y-85963416D01*
X110273881Y-85963422D01*
X110104898Y-86242956D01*
X110104897Y-86242958D01*
X109970839Y-86540824D01*
X109970835Y-86540835D01*
X109873667Y-86852658D01*
X109814786Y-87173961D01*
X109795065Y-87500000D01*
X105651641Y-87500000D01*
X115495581Y-81816597D01*
X115505141Y-81811620D01*
X115525157Y-81802287D01*
X115526861Y-81801510D01*
X115664957Y-81740026D01*
X115683263Y-81733543D01*
X115742699Y-81717618D01*
X115748932Y-81716122D01*
X115854737Y-81693632D01*
X115869692Y-81691397D01*
X115937703Y-81685447D01*
X115948510Y-81684975D01*
X116051480Y-81684975D01*
X116062287Y-81685447D01*
G37*
G04 #@! TD.AperFunction*
G04 #@! TA.AperFunction,Conductor*
G36*
X123770507Y-111200156D02*
G01*
X123730000Y-111338111D01*
X123730000Y-111481889D01*
X123770507Y-111619844D01*
X123796314Y-111660000D01*
X122123686Y-111660000D01*
X122149493Y-111619844D01*
X122190000Y-111481889D01*
X122190000Y-111338111D01*
X122149493Y-111200156D01*
X122123686Y-111160000D01*
X123796314Y-111160000D01*
X123770507Y-111200156D01*
G37*
G04 #@! TD.AperFunction*
G04 #@! TA.AperFunction,Conductor*
G36*
X119236587Y-101645185D02*
G01*
X119257229Y-101661819D01*
X120459197Y-102863788D01*
X120469022Y-102876051D01*
X120469243Y-102875869D01*
X120474211Y-102881875D01*
X120518756Y-102923706D01*
X120554150Y-102983947D01*
X120551356Y-103053761D01*
X120535448Y-103085217D01*
X120516401Y-103112419D01*
X120516399Y-103112423D01*
X120416570Y-103326507D01*
X120416567Y-103326513D01*
X120359364Y-103539999D01*
X120359364Y-103540000D01*
X121256314Y-103540000D01*
X121230507Y-103580156D01*
X121190000Y-103718111D01*
X121190000Y-103861889D01*
X121230507Y-103999844D01*
X121256314Y-104040000D01*
X120355952Y-104040000D01*
X120288913Y-104020315D01*
X120268271Y-104003681D01*
X119269004Y-103004414D01*
X118101772Y-101837181D01*
X118068287Y-101775858D01*
X118073271Y-101706166D01*
X118115143Y-101650233D01*
X118180607Y-101625816D01*
X118189453Y-101625500D01*
X119169548Y-101625500D01*
X119236587Y-101645185D01*
G37*
G04 #@! TD.AperFunction*
G04 #@! TA.AperFunction,Conductor*
G36*
X120365150Y-95565185D02*
G01*
X120410905Y-95617989D01*
X120420849Y-95687147D01*
X120417886Y-95701594D01*
X120359364Y-95919999D01*
X120359364Y-95920000D01*
X121256314Y-95920000D01*
X121230507Y-95960156D01*
X121190000Y-96098111D01*
X121190000Y-96241889D01*
X121230507Y-96379844D01*
X121256314Y-96420000D01*
X120359364Y-96420000D01*
X120415981Y-96631297D01*
X120414318Y-96701147D01*
X120375156Y-96759010D01*
X120310927Y-96786514D01*
X120302053Y-96787183D01*
X120301373Y-96787290D01*
X120282129Y-96792881D01*
X120263079Y-96796825D01*
X120243211Y-96799334D01*
X120243210Y-96799334D01*
X120202599Y-96815413D01*
X120191554Y-96819194D01*
X120149614Y-96831379D01*
X120149610Y-96831381D01*
X120132366Y-96841579D01*
X120114905Y-96850133D01*
X120096274Y-96857510D01*
X120096262Y-96857517D01*
X120060933Y-96883185D01*
X120051173Y-96889596D01*
X120013580Y-96911829D01*
X119999414Y-96925995D01*
X119984624Y-96938627D01*
X119968414Y-96950404D01*
X119968411Y-96950407D01*
X119940573Y-96984058D01*
X119932711Y-96992697D01*
X118187228Y-98738181D01*
X118125905Y-98771666D01*
X118099547Y-98774500D01*
X117259452Y-98774500D01*
X117192413Y-98754815D01*
X117146658Y-98702011D01*
X117136714Y-98632853D01*
X117165739Y-98569297D01*
X117171771Y-98562819D01*
X120152772Y-95581819D01*
X120214095Y-95548334D01*
X120240453Y-95545500D01*
X120298111Y-95545500D01*
X120365150Y-95565185D01*
G37*
G04 #@! TD.AperFunction*
G04 #@! TA.AperFunction,Conductor*
G36*
X123770507Y-88340156D02*
G01*
X123730000Y-88478111D01*
X123730000Y-88621889D01*
X123770507Y-88759844D01*
X123796314Y-88800000D01*
X122123686Y-88800000D01*
X122149493Y-88759844D01*
X122190000Y-88621889D01*
X122190000Y-88478111D01*
X122149493Y-88340156D01*
X122123686Y-88300000D01*
X123796314Y-88300000D01*
X123770507Y-88340156D01*
G37*
G04 #@! TD.AperFunction*
M02*
