G04 #@! TF.GenerationSoftware,KiCad,Pcbnew,7.0.10*
G04 #@! TF.CreationDate,2024-06-08T12:41:12+01:00*
G04 #@! TF.ProjectId,hexpansion,68657870-616e-4736-996f-6e2e6b696361,rev?*
G04 #@! TF.SameCoordinates,Original*
G04 #@! TF.FileFunction,Legend,Top*
G04 #@! TF.FilePolarity,Positive*
%FSLAX46Y46*%
G04 Gerber Fmt 4.6, Leading zero omitted, Abs format (unit mm)*
G04 Created by KiCad (PCBNEW 7.0.10) date 2024-06-08 12:41:12*
%MOMM*%
%LPD*%
G01*
G04 APERTURE LIST*
G04 Aperture macros list*
%AMRoundRect*
0 Rectangle with rounded corners*
0 $1 Rounding radius*
0 $2 $3 $4 $5 $6 $7 $8 $9 X,Y pos of 4 corners*
0 Add a 4 corners polygon primitive as box body*
4,1,4,$2,$3,$4,$5,$6,$7,$8,$9,$2,$3,0*
0 Add four circle primitives for the rounded corners*
1,1,$1+$1,$2,$3*
1,1,$1+$1,$4,$5*
1,1,$1+$1,$6,$7*
1,1,$1+$1,$8,$9*
0 Add four rect primitives between the rounded corners*
20,1,$1+$1,$2,$3,$4,$5,0*
20,1,$1+$1,$4,$5,$6,$7,0*
20,1,$1+$1,$6,$7,$8,$9,0*
20,1,$1+$1,$8,$9,$2,$3,0*%
%AMFreePoly0*
4,1,19,0.500000,-0.750000,0.000000,-0.750000,0.000000,-0.744911,-0.071157,-0.744911,-0.207708,-0.704816,-0.327430,-0.627875,-0.420627,-0.520320,-0.479746,-0.390866,-0.500000,-0.250000,-0.500000,0.250000,-0.479746,0.390866,-0.420627,0.520320,-0.327430,0.627875,-0.207708,0.704816,-0.071157,0.744911,0.000000,0.744911,0.000000,0.750000,0.500000,0.750000,0.500000,-0.750000,0.500000,-0.750000,
$1*%
%AMFreePoly1*
4,1,19,0.000000,0.744911,0.071157,0.744911,0.207708,0.704816,0.327430,0.627875,0.420627,0.520320,0.479746,0.390866,0.500000,0.250000,0.500000,-0.250000,0.479746,-0.390866,0.420627,-0.520320,0.327430,-0.627875,0.207708,-0.704816,0.071157,-0.744911,0.000000,-0.744911,0.000000,-0.750000,-0.500000,-0.750000,-0.500000,0.750000,0.000000,0.750000,0.000000,0.744911,0.000000,0.744911,
$1*%
G04 Aperture macros list end*
%ADD10C,0.200000*%
%ADD11C,0.250000*%
%ADD12C,0.150000*%
%ADD13C,0.120000*%
%ADD14RoundRect,0.150000X1.600000X0.150000X-1.600000X0.150000X-1.600000X-0.150000X1.600000X-0.150000X0*%
%ADD15RoundRect,0.150000X1.200000X0.150000X-1.200000X0.150000X-1.200000X-0.150000X1.200000X-0.150000X0*%
%ADD16RoundRect,0.243750X-0.456250X0.243750X-0.456250X-0.243750X0.456250X-0.243750X0.456250X0.243750X0*%
%ADD17C,0.700000*%
%ADD18C,4.400000*%
%ADD19R,1.700000X1.700000*%
%ADD20O,1.700000X1.700000*%
%ADD21FreePoly0,90.000000*%
%ADD22FreePoly1,90.000000*%
%ADD23RoundRect,0.200000X0.275000X-0.200000X0.275000X0.200000X-0.275000X0.200000X-0.275000X-0.200000X0*%
G04 APERTURE END LIST*
D10*
X117254435Y-100587219D02*
X117873482Y-100587219D01*
X117873482Y-100587219D02*
X117540149Y-100968171D01*
X117540149Y-100968171D02*
X117683006Y-100968171D01*
X117683006Y-100968171D02*
X117778244Y-101015790D01*
X117778244Y-101015790D02*
X117825863Y-101063409D01*
X117825863Y-101063409D02*
X117873482Y-101158647D01*
X117873482Y-101158647D02*
X117873482Y-101396742D01*
X117873482Y-101396742D02*
X117825863Y-101491980D01*
X117825863Y-101491980D02*
X117778244Y-101539600D01*
X117778244Y-101539600D02*
X117683006Y-101587219D01*
X117683006Y-101587219D02*
X117397292Y-101587219D01*
X117397292Y-101587219D02*
X117302054Y-101539600D01*
X117302054Y-101539600D02*
X117254435Y-101491980D01*
X118159197Y-100587219D02*
X118492530Y-101587219D01*
X118492530Y-101587219D02*
X118825863Y-100587219D01*
X119063959Y-100587219D02*
X119683006Y-100587219D01*
X119683006Y-100587219D02*
X119349673Y-100968171D01*
X119349673Y-100968171D02*
X119492530Y-100968171D01*
X119492530Y-100968171D02*
X119587768Y-101015790D01*
X119587768Y-101015790D02*
X119635387Y-101063409D01*
X119635387Y-101063409D02*
X119683006Y-101158647D01*
X119683006Y-101158647D02*
X119683006Y-101396742D01*
X119683006Y-101396742D02*
X119635387Y-101491980D01*
X119635387Y-101491980D02*
X119587768Y-101539600D01*
X119587768Y-101539600D02*
X119492530Y-101587219D01*
X119492530Y-101587219D02*
X119206816Y-101587219D01*
X119206816Y-101587219D02*
X119111578Y-101539600D01*
X119111578Y-101539600D02*
X119063959Y-101491980D01*
X116949673Y-109517219D02*
X116949673Y-108517219D01*
X116949673Y-108993409D02*
X117521101Y-108993409D01*
X117521101Y-109517219D02*
X117521101Y-108517219D01*
X117949673Y-109469600D02*
X118092530Y-109517219D01*
X118092530Y-109517219D02*
X118330625Y-109517219D01*
X118330625Y-109517219D02*
X118425863Y-109469600D01*
X118425863Y-109469600D02*
X118473482Y-109421980D01*
X118473482Y-109421980D02*
X118521101Y-109326742D01*
X118521101Y-109326742D02*
X118521101Y-109231504D01*
X118521101Y-109231504D02*
X118473482Y-109136266D01*
X118473482Y-109136266D02*
X118425863Y-109088647D01*
X118425863Y-109088647D02*
X118330625Y-109041028D01*
X118330625Y-109041028D02*
X118140149Y-108993409D01*
X118140149Y-108993409D02*
X118044911Y-108945790D01*
X118044911Y-108945790D02*
X117997292Y-108898171D01*
X117997292Y-108898171D02*
X117949673Y-108802933D01*
X117949673Y-108802933D02*
X117949673Y-108707695D01*
X117949673Y-108707695D02*
X117997292Y-108612457D01*
X117997292Y-108612457D02*
X118044911Y-108564838D01*
X118044911Y-108564838D02*
X118140149Y-108517219D01*
X118140149Y-108517219D02*
X118378244Y-108517219D01*
X118378244Y-108517219D02*
X118521101Y-108564838D01*
X118711578Y-109612457D02*
X119473482Y-109612457D01*
X119711578Y-109517219D02*
X119711578Y-108517219D01*
X126495863Y-96727219D02*
X126019673Y-96727219D01*
X126019673Y-96727219D02*
X126019673Y-95727219D01*
X126781578Y-96679600D02*
X126924435Y-96727219D01*
X126924435Y-96727219D02*
X127162530Y-96727219D01*
X127162530Y-96727219D02*
X127257768Y-96679600D01*
X127257768Y-96679600D02*
X127305387Y-96631980D01*
X127305387Y-96631980D02*
X127353006Y-96536742D01*
X127353006Y-96536742D02*
X127353006Y-96441504D01*
X127353006Y-96441504D02*
X127305387Y-96346266D01*
X127305387Y-96346266D02*
X127257768Y-96298647D01*
X127257768Y-96298647D02*
X127162530Y-96251028D01*
X127162530Y-96251028D02*
X126972054Y-96203409D01*
X126972054Y-96203409D02*
X126876816Y-96155790D01*
X126876816Y-96155790D02*
X126829197Y-96108171D01*
X126829197Y-96108171D02*
X126781578Y-96012933D01*
X126781578Y-96012933D02*
X126781578Y-95917695D01*
X126781578Y-95917695D02*
X126829197Y-95822457D01*
X126829197Y-95822457D02*
X126876816Y-95774838D01*
X126876816Y-95774838D02*
X126972054Y-95727219D01*
X126972054Y-95727219D02*
X127210149Y-95727219D01*
X127210149Y-95727219D02*
X127353006Y-95774838D01*
X127543483Y-96822457D02*
X128305387Y-96822457D01*
X129114911Y-96631980D02*
X129067292Y-96679600D01*
X129067292Y-96679600D02*
X128924435Y-96727219D01*
X128924435Y-96727219D02*
X128829197Y-96727219D01*
X128829197Y-96727219D02*
X128686340Y-96679600D01*
X128686340Y-96679600D02*
X128591102Y-96584361D01*
X128591102Y-96584361D02*
X128543483Y-96489123D01*
X128543483Y-96489123D02*
X128495864Y-96298647D01*
X128495864Y-96298647D02*
X128495864Y-96155790D01*
X128495864Y-96155790D02*
X128543483Y-95965314D01*
X128543483Y-95965314D02*
X128591102Y-95870076D01*
X128591102Y-95870076D02*
X128686340Y-95774838D01*
X128686340Y-95774838D02*
X128829197Y-95727219D01*
X128829197Y-95727219D02*
X128924435Y-95727219D01*
X128924435Y-95727219D02*
X129067292Y-95774838D01*
X129067292Y-95774838D02*
X129114911Y-95822457D01*
X126655863Y-106787219D02*
X126179673Y-106787219D01*
X126179673Y-106787219D02*
X126179673Y-105787219D01*
X126941578Y-106739600D02*
X127084435Y-106787219D01*
X127084435Y-106787219D02*
X127322530Y-106787219D01*
X127322530Y-106787219D02*
X127417768Y-106739600D01*
X127417768Y-106739600D02*
X127465387Y-106691980D01*
X127465387Y-106691980D02*
X127513006Y-106596742D01*
X127513006Y-106596742D02*
X127513006Y-106501504D01*
X127513006Y-106501504D02*
X127465387Y-106406266D01*
X127465387Y-106406266D02*
X127417768Y-106358647D01*
X127417768Y-106358647D02*
X127322530Y-106311028D01*
X127322530Y-106311028D02*
X127132054Y-106263409D01*
X127132054Y-106263409D02*
X127036816Y-106215790D01*
X127036816Y-106215790D02*
X126989197Y-106168171D01*
X126989197Y-106168171D02*
X126941578Y-106072933D01*
X126941578Y-106072933D02*
X126941578Y-105977695D01*
X126941578Y-105977695D02*
X126989197Y-105882457D01*
X126989197Y-105882457D02*
X127036816Y-105834838D01*
X127036816Y-105834838D02*
X127132054Y-105787219D01*
X127132054Y-105787219D02*
X127370149Y-105787219D01*
X127370149Y-105787219D02*
X127513006Y-105834838D01*
X127703483Y-106882457D02*
X128465387Y-106882457D01*
X129036816Y-106263409D02*
X129179673Y-106311028D01*
X129179673Y-106311028D02*
X129227292Y-106358647D01*
X129227292Y-106358647D02*
X129274911Y-106453885D01*
X129274911Y-106453885D02*
X129274911Y-106596742D01*
X129274911Y-106596742D02*
X129227292Y-106691980D01*
X129227292Y-106691980D02*
X129179673Y-106739600D01*
X129179673Y-106739600D02*
X129084435Y-106787219D01*
X129084435Y-106787219D02*
X128703483Y-106787219D01*
X128703483Y-106787219D02*
X128703483Y-105787219D01*
X128703483Y-105787219D02*
X129036816Y-105787219D01*
X129036816Y-105787219D02*
X129132054Y-105834838D01*
X129132054Y-105834838D02*
X129179673Y-105882457D01*
X129179673Y-105882457D02*
X129227292Y-105977695D01*
X129227292Y-105977695D02*
X129227292Y-106072933D01*
X129227292Y-106072933D02*
X129179673Y-106168171D01*
X129179673Y-106168171D02*
X129132054Y-106215790D01*
X129132054Y-106215790D02*
X129036816Y-106263409D01*
X129036816Y-106263409D02*
X128703483Y-106263409D01*
X116459673Y-106907219D02*
X116459673Y-105907219D01*
X116459673Y-106383409D02*
X117031101Y-106383409D01*
X117031101Y-106907219D02*
X117031101Y-105907219D01*
X117459673Y-106859600D02*
X117602530Y-106907219D01*
X117602530Y-106907219D02*
X117840625Y-106907219D01*
X117840625Y-106907219D02*
X117935863Y-106859600D01*
X117935863Y-106859600D02*
X117983482Y-106811980D01*
X117983482Y-106811980D02*
X118031101Y-106716742D01*
X118031101Y-106716742D02*
X118031101Y-106621504D01*
X118031101Y-106621504D02*
X117983482Y-106526266D01*
X117983482Y-106526266D02*
X117935863Y-106478647D01*
X117935863Y-106478647D02*
X117840625Y-106431028D01*
X117840625Y-106431028D02*
X117650149Y-106383409D01*
X117650149Y-106383409D02*
X117554911Y-106335790D01*
X117554911Y-106335790D02*
X117507292Y-106288171D01*
X117507292Y-106288171D02*
X117459673Y-106192933D01*
X117459673Y-106192933D02*
X117459673Y-106097695D01*
X117459673Y-106097695D02*
X117507292Y-106002457D01*
X117507292Y-106002457D02*
X117554911Y-105954838D01*
X117554911Y-105954838D02*
X117650149Y-105907219D01*
X117650149Y-105907219D02*
X117888244Y-105907219D01*
X117888244Y-105907219D02*
X118031101Y-105954838D01*
X118221578Y-107002457D02*
X118983482Y-107002457D01*
X119221578Y-106907219D02*
X119221578Y-105907219D01*
X119221578Y-106383409D02*
X119793006Y-106383409D01*
X119793006Y-106907219D02*
X119793006Y-105907219D01*
X126475863Y-91677219D02*
X125999673Y-91677219D01*
X125999673Y-91677219D02*
X125999673Y-90677219D01*
X126761578Y-91629600D02*
X126904435Y-91677219D01*
X126904435Y-91677219D02*
X127142530Y-91677219D01*
X127142530Y-91677219D02*
X127237768Y-91629600D01*
X127237768Y-91629600D02*
X127285387Y-91581980D01*
X127285387Y-91581980D02*
X127333006Y-91486742D01*
X127333006Y-91486742D02*
X127333006Y-91391504D01*
X127333006Y-91391504D02*
X127285387Y-91296266D01*
X127285387Y-91296266D02*
X127237768Y-91248647D01*
X127237768Y-91248647D02*
X127142530Y-91201028D01*
X127142530Y-91201028D02*
X126952054Y-91153409D01*
X126952054Y-91153409D02*
X126856816Y-91105790D01*
X126856816Y-91105790D02*
X126809197Y-91058171D01*
X126809197Y-91058171D02*
X126761578Y-90962933D01*
X126761578Y-90962933D02*
X126761578Y-90867695D01*
X126761578Y-90867695D02*
X126809197Y-90772457D01*
X126809197Y-90772457D02*
X126856816Y-90724838D01*
X126856816Y-90724838D02*
X126952054Y-90677219D01*
X126952054Y-90677219D02*
X127190149Y-90677219D01*
X127190149Y-90677219D02*
X127333006Y-90724838D01*
X127523483Y-91772457D02*
X128285387Y-91772457D01*
X128523483Y-91153409D02*
X128856816Y-91153409D01*
X128999673Y-91677219D02*
X128523483Y-91677219D01*
X128523483Y-91677219D02*
X128523483Y-90677219D01*
X128523483Y-90677219D02*
X128999673Y-90677219D01*
X126765863Y-109507219D02*
X126289673Y-109507219D01*
X126289673Y-109507219D02*
X126289673Y-108507219D01*
X127051578Y-109459600D02*
X127194435Y-109507219D01*
X127194435Y-109507219D02*
X127432530Y-109507219D01*
X127432530Y-109507219D02*
X127527768Y-109459600D01*
X127527768Y-109459600D02*
X127575387Y-109411980D01*
X127575387Y-109411980D02*
X127623006Y-109316742D01*
X127623006Y-109316742D02*
X127623006Y-109221504D01*
X127623006Y-109221504D02*
X127575387Y-109126266D01*
X127575387Y-109126266D02*
X127527768Y-109078647D01*
X127527768Y-109078647D02*
X127432530Y-109031028D01*
X127432530Y-109031028D02*
X127242054Y-108983409D01*
X127242054Y-108983409D02*
X127146816Y-108935790D01*
X127146816Y-108935790D02*
X127099197Y-108888171D01*
X127099197Y-108888171D02*
X127051578Y-108792933D01*
X127051578Y-108792933D02*
X127051578Y-108697695D01*
X127051578Y-108697695D02*
X127099197Y-108602457D01*
X127099197Y-108602457D02*
X127146816Y-108554838D01*
X127146816Y-108554838D02*
X127242054Y-108507219D01*
X127242054Y-108507219D02*
X127480149Y-108507219D01*
X127480149Y-108507219D02*
X127623006Y-108554838D01*
X127813483Y-109602457D02*
X128575387Y-109602457D01*
X128765864Y-109221504D02*
X129242054Y-109221504D01*
X128670626Y-109507219D02*
X129003959Y-108507219D01*
X129003959Y-108507219D02*
X129337292Y-109507219D01*
X117214435Y-98237219D02*
X117833482Y-98237219D01*
X117833482Y-98237219D02*
X117500149Y-98618171D01*
X117500149Y-98618171D02*
X117643006Y-98618171D01*
X117643006Y-98618171D02*
X117738244Y-98665790D01*
X117738244Y-98665790D02*
X117785863Y-98713409D01*
X117785863Y-98713409D02*
X117833482Y-98808647D01*
X117833482Y-98808647D02*
X117833482Y-99046742D01*
X117833482Y-99046742D02*
X117785863Y-99141980D01*
X117785863Y-99141980D02*
X117738244Y-99189600D01*
X117738244Y-99189600D02*
X117643006Y-99237219D01*
X117643006Y-99237219D02*
X117357292Y-99237219D01*
X117357292Y-99237219D02*
X117262054Y-99189600D01*
X117262054Y-99189600D02*
X117214435Y-99141980D01*
X118119197Y-98237219D02*
X118452530Y-99237219D01*
X118452530Y-99237219D02*
X118785863Y-98237219D01*
X119023959Y-98237219D02*
X119643006Y-98237219D01*
X119643006Y-98237219D02*
X119309673Y-98618171D01*
X119309673Y-98618171D02*
X119452530Y-98618171D01*
X119452530Y-98618171D02*
X119547768Y-98665790D01*
X119547768Y-98665790D02*
X119595387Y-98713409D01*
X119595387Y-98713409D02*
X119643006Y-98808647D01*
X119643006Y-98808647D02*
X119643006Y-99046742D01*
X119643006Y-99046742D02*
X119595387Y-99141980D01*
X119595387Y-99141980D02*
X119547768Y-99189600D01*
X119547768Y-99189600D02*
X119452530Y-99237219D01*
X119452530Y-99237219D02*
X119166816Y-99237219D01*
X119166816Y-99237219D02*
X119071578Y-99189600D01*
X119071578Y-99189600D02*
X119023959Y-99141980D01*
X126132054Y-101769600D02*
X126274911Y-101817219D01*
X126274911Y-101817219D02*
X126513006Y-101817219D01*
X126513006Y-101817219D02*
X126608244Y-101769600D01*
X126608244Y-101769600D02*
X126655863Y-101721980D01*
X126655863Y-101721980D02*
X126703482Y-101626742D01*
X126703482Y-101626742D02*
X126703482Y-101531504D01*
X126703482Y-101531504D02*
X126655863Y-101436266D01*
X126655863Y-101436266D02*
X126608244Y-101388647D01*
X126608244Y-101388647D02*
X126513006Y-101341028D01*
X126513006Y-101341028D02*
X126322530Y-101293409D01*
X126322530Y-101293409D02*
X126227292Y-101245790D01*
X126227292Y-101245790D02*
X126179673Y-101198171D01*
X126179673Y-101198171D02*
X126132054Y-101102933D01*
X126132054Y-101102933D02*
X126132054Y-101007695D01*
X126132054Y-101007695D02*
X126179673Y-100912457D01*
X126179673Y-100912457D02*
X126227292Y-100864838D01*
X126227292Y-100864838D02*
X126322530Y-100817219D01*
X126322530Y-100817219D02*
X126560625Y-100817219D01*
X126560625Y-100817219D02*
X126703482Y-100864838D01*
X127703482Y-101721980D02*
X127655863Y-101769600D01*
X127655863Y-101769600D02*
X127513006Y-101817219D01*
X127513006Y-101817219D02*
X127417768Y-101817219D01*
X127417768Y-101817219D02*
X127274911Y-101769600D01*
X127274911Y-101769600D02*
X127179673Y-101674361D01*
X127179673Y-101674361D02*
X127132054Y-101579123D01*
X127132054Y-101579123D02*
X127084435Y-101388647D01*
X127084435Y-101388647D02*
X127084435Y-101245790D01*
X127084435Y-101245790D02*
X127132054Y-101055314D01*
X127132054Y-101055314D02*
X127179673Y-100960076D01*
X127179673Y-100960076D02*
X127274911Y-100864838D01*
X127274911Y-100864838D02*
X127417768Y-100817219D01*
X127417768Y-100817219D02*
X127513006Y-100817219D01*
X127513006Y-100817219D02*
X127655863Y-100864838D01*
X127655863Y-100864838D02*
X127703482Y-100912457D01*
X128608244Y-101817219D02*
X128132054Y-101817219D01*
X128132054Y-101817219D02*
X128132054Y-100817219D01*
X126893482Y-110754838D02*
X126798244Y-110707219D01*
X126798244Y-110707219D02*
X126655387Y-110707219D01*
X126655387Y-110707219D02*
X126512530Y-110754838D01*
X126512530Y-110754838D02*
X126417292Y-110850076D01*
X126417292Y-110850076D02*
X126369673Y-110945314D01*
X126369673Y-110945314D02*
X126322054Y-111135790D01*
X126322054Y-111135790D02*
X126322054Y-111278647D01*
X126322054Y-111278647D02*
X126369673Y-111469123D01*
X126369673Y-111469123D02*
X126417292Y-111564361D01*
X126417292Y-111564361D02*
X126512530Y-111659600D01*
X126512530Y-111659600D02*
X126655387Y-111707219D01*
X126655387Y-111707219D02*
X126750625Y-111707219D01*
X126750625Y-111707219D02*
X126893482Y-111659600D01*
X126893482Y-111659600D02*
X126941101Y-111611980D01*
X126941101Y-111611980D02*
X126941101Y-111278647D01*
X126941101Y-111278647D02*
X126750625Y-111278647D01*
X126362054Y-104329600D02*
X126504911Y-104377219D01*
X126504911Y-104377219D02*
X126743006Y-104377219D01*
X126743006Y-104377219D02*
X126838244Y-104329600D01*
X126838244Y-104329600D02*
X126885863Y-104281980D01*
X126885863Y-104281980D02*
X126933482Y-104186742D01*
X126933482Y-104186742D02*
X126933482Y-104091504D01*
X126933482Y-104091504D02*
X126885863Y-103996266D01*
X126885863Y-103996266D02*
X126838244Y-103948647D01*
X126838244Y-103948647D02*
X126743006Y-103901028D01*
X126743006Y-103901028D02*
X126552530Y-103853409D01*
X126552530Y-103853409D02*
X126457292Y-103805790D01*
X126457292Y-103805790D02*
X126409673Y-103758171D01*
X126409673Y-103758171D02*
X126362054Y-103662933D01*
X126362054Y-103662933D02*
X126362054Y-103567695D01*
X126362054Y-103567695D02*
X126409673Y-103472457D01*
X126409673Y-103472457D02*
X126457292Y-103424838D01*
X126457292Y-103424838D02*
X126552530Y-103377219D01*
X126552530Y-103377219D02*
X126790625Y-103377219D01*
X126790625Y-103377219D02*
X126933482Y-103424838D01*
X127362054Y-104377219D02*
X127362054Y-103377219D01*
X127362054Y-103377219D02*
X127600149Y-103377219D01*
X127600149Y-103377219D02*
X127743006Y-103424838D01*
X127743006Y-103424838D02*
X127838244Y-103520076D01*
X127838244Y-103520076D02*
X127885863Y-103615314D01*
X127885863Y-103615314D02*
X127933482Y-103805790D01*
X127933482Y-103805790D02*
X127933482Y-103948647D01*
X127933482Y-103948647D02*
X127885863Y-104139123D01*
X127885863Y-104139123D02*
X127838244Y-104234361D01*
X127838244Y-104234361D02*
X127743006Y-104329600D01*
X127743006Y-104329600D02*
X127600149Y-104377219D01*
X127600149Y-104377219D02*
X127362054Y-104377219D01*
X128314435Y-104091504D02*
X128790625Y-104091504D01*
X128219197Y-104377219D02*
X128552530Y-103377219D01*
X128552530Y-103377219D02*
X128885863Y-104377219D01*
X116549673Y-91667219D02*
X116549673Y-90667219D01*
X116549673Y-91143409D02*
X117121101Y-91143409D01*
X117121101Y-91667219D02*
X117121101Y-90667219D01*
X117549673Y-91619600D02*
X117692530Y-91667219D01*
X117692530Y-91667219D02*
X117930625Y-91667219D01*
X117930625Y-91667219D02*
X118025863Y-91619600D01*
X118025863Y-91619600D02*
X118073482Y-91571980D01*
X118073482Y-91571980D02*
X118121101Y-91476742D01*
X118121101Y-91476742D02*
X118121101Y-91381504D01*
X118121101Y-91381504D02*
X118073482Y-91286266D01*
X118073482Y-91286266D02*
X118025863Y-91238647D01*
X118025863Y-91238647D02*
X117930625Y-91191028D01*
X117930625Y-91191028D02*
X117740149Y-91143409D01*
X117740149Y-91143409D02*
X117644911Y-91095790D01*
X117644911Y-91095790D02*
X117597292Y-91048171D01*
X117597292Y-91048171D02*
X117549673Y-90952933D01*
X117549673Y-90952933D02*
X117549673Y-90857695D01*
X117549673Y-90857695D02*
X117597292Y-90762457D01*
X117597292Y-90762457D02*
X117644911Y-90714838D01*
X117644911Y-90714838D02*
X117740149Y-90667219D01*
X117740149Y-90667219D02*
X117978244Y-90667219D01*
X117978244Y-90667219D02*
X118121101Y-90714838D01*
X118311578Y-91762457D02*
X119073482Y-91762457D01*
X119644911Y-91143409D02*
X119311578Y-91143409D01*
X119311578Y-91667219D02*
X119311578Y-90667219D01*
X119311578Y-90667219D02*
X119787768Y-90667219D01*
X119783482Y-87944838D02*
X119688244Y-87897219D01*
X119688244Y-87897219D02*
X119545387Y-87897219D01*
X119545387Y-87897219D02*
X119402530Y-87944838D01*
X119402530Y-87944838D02*
X119307292Y-88040076D01*
X119307292Y-88040076D02*
X119259673Y-88135314D01*
X119259673Y-88135314D02*
X119212054Y-88325790D01*
X119212054Y-88325790D02*
X119212054Y-88468647D01*
X119212054Y-88468647D02*
X119259673Y-88659123D01*
X119259673Y-88659123D02*
X119307292Y-88754361D01*
X119307292Y-88754361D02*
X119402530Y-88849600D01*
X119402530Y-88849600D02*
X119545387Y-88897219D01*
X119545387Y-88897219D02*
X119640625Y-88897219D01*
X119640625Y-88897219D02*
X119783482Y-88849600D01*
X119783482Y-88849600D02*
X119831101Y-88801980D01*
X119831101Y-88801980D02*
X119831101Y-88468647D01*
X119831101Y-88468647D02*
X119640625Y-88468647D01*
X119843482Y-111044838D02*
X119748244Y-110997219D01*
X119748244Y-110997219D02*
X119605387Y-110997219D01*
X119605387Y-110997219D02*
X119462530Y-111044838D01*
X119462530Y-111044838D02*
X119367292Y-111140076D01*
X119367292Y-111140076D02*
X119319673Y-111235314D01*
X119319673Y-111235314D02*
X119272054Y-111425790D01*
X119272054Y-111425790D02*
X119272054Y-111568647D01*
X119272054Y-111568647D02*
X119319673Y-111759123D01*
X119319673Y-111759123D02*
X119367292Y-111854361D01*
X119367292Y-111854361D02*
X119462530Y-111949600D01*
X119462530Y-111949600D02*
X119605387Y-111997219D01*
X119605387Y-111997219D02*
X119700625Y-111997219D01*
X119700625Y-111997219D02*
X119843482Y-111949600D01*
X119843482Y-111949600D02*
X119891101Y-111901980D01*
X119891101Y-111901980D02*
X119891101Y-111568647D01*
X119891101Y-111568647D02*
X119700625Y-111568647D01*
X119823482Y-103264838D02*
X119728244Y-103217219D01*
X119728244Y-103217219D02*
X119585387Y-103217219D01*
X119585387Y-103217219D02*
X119442530Y-103264838D01*
X119442530Y-103264838D02*
X119347292Y-103360076D01*
X119347292Y-103360076D02*
X119299673Y-103455314D01*
X119299673Y-103455314D02*
X119252054Y-103645790D01*
X119252054Y-103645790D02*
X119252054Y-103788647D01*
X119252054Y-103788647D02*
X119299673Y-103979123D01*
X119299673Y-103979123D02*
X119347292Y-104074361D01*
X119347292Y-104074361D02*
X119442530Y-104169600D01*
X119442530Y-104169600D02*
X119585387Y-104217219D01*
X119585387Y-104217219D02*
X119680625Y-104217219D01*
X119680625Y-104217219D02*
X119823482Y-104169600D01*
X119823482Y-104169600D02*
X119871101Y-104121980D01*
X119871101Y-104121980D02*
X119871101Y-103788647D01*
X119871101Y-103788647D02*
X119680625Y-103788647D01*
X126339673Y-99297219D02*
X126339673Y-98297219D01*
X126339673Y-98297219D02*
X126911101Y-99297219D01*
X126911101Y-99297219D02*
X126911101Y-98297219D01*
X127387292Y-99297219D02*
X127387292Y-98297219D01*
X127387292Y-98297219D02*
X127625387Y-98297219D01*
X127625387Y-98297219D02*
X127768244Y-98344838D01*
X127768244Y-98344838D02*
X127863482Y-98440076D01*
X127863482Y-98440076D02*
X127911101Y-98535314D01*
X127911101Y-98535314D02*
X127958720Y-98725790D01*
X127958720Y-98725790D02*
X127958720Y-98868647D01*
X127958720Y-98868647D02*
X127911101Y-99059123D01*
X127911101Y-99059123D02*
X127863482Y-99154361D01*
X127863482Y-99154361D02*
X127768244Y-99249600D01*
X127768244Y-99249600D02*
X127625387Y-99297219D01*
X127625387Y-99297219D02*
X127387292Y-99297219D01*
X126455863Y-94087219D02*
X125979673Y-94087219D01*
X125979673Y-94087219D02*
X125979673Y-93087219D01*
X126741578Y-94039600D02*
X126884435Y-94087219D01*
X126884435Y-94087219D02*
X127122530Y-94087219D01*
X127122530Y-94087219D02*
X127217768Y-94039600D01*
X127217768Y-94039600D02*
X127265387Y-93991980D01*
X127265387Y-93991980D02*
X127313006Y-93896742D01*
X127313006Y-93896742D02*
X127313006Y-93801504D01*
X127313006Y-93801504D02*
X127265387Y-93706266D01*
X127265387Y-93706266D02*
X127217768Y-93658647D01*
X127217768Y-93658647D02*
X127122530Y-93611028D01*
X127122530Y-93611028D02*
X126932054Y-93563409D01*
X126932054Y-93563409D02*
X126836816Y-93515790D01*
X126836816Y-93515790D02*
X126789197Y-93468171D01*
X126789197Y-93468171D02*
X126741578Y-93372933D01*
X126741578Y-93372933D02*
X126741578Y-93277695D01*
X126741578Y-93277695D02*
X126789197Y-93182457D01*
X126789197Y-93182457D02*
X126836816Y-93134838D01*
X126836816Y-93134838D02*
X126932054Y-93087219D01*
X126932054Y-93087219D02*
X127170149Y-93087219D01*
X127170149Y-93087219D02*
X127313006Y-93134838D01*
X127503483Y-94182457D02*
X128265387Y-94182457D01*
X128503483Y-94087219D02*
X128503483Y-93087219D01*
X128503483Y-93087219D02*
X128741578Y-93087219D01*
X128741578Y-93087219D02*
X128884435Y-93134838D01*
X128884435Y-93134838D02*
X128979673Y-93230076D01*
X128979673Y-93230076D02*
X129027292Y-93325314D01*
X129027292Y-93325314D02*
X129074911Y-93515790D01*
X129074911Y-93515790D02*
X129074911Y-93658647D01*
X129074911Y-93658647D02*
X129027292Y-93849123D01*
X129027292Y-93849123D02*
X128979673Y-93944361D01*
X128979673Y-93944361D02*
X128884435Y-94039600D01*
X128884435Y-94039600D02*
X128741578Y-94087219D01*
X128741578Y-94087219D02*
X128503483Y-94087219D01*
X126623482Y-88004838D02*
X126528244Y-87957219D01*
X126528244Y-87957219D02*
X126385387Y-87957219D01*
X126385387Y-87957219D02*
X126242530Y-88004838D01*
X126242530Y-88004838D02*
X126147292Y-88100076D01*
X126147292Y-88100076D02*
X126099673Y-88195314D01*
X126099673Y-88195314D02*
X126052054Y-88385790D01*
X126052054Y-88385790D02*
X126052054Y-88528647D01*
X126052054Y-88528647D02*
X126099673Y-88719123D01*
X126099673Y-88719123D02*
X126147292Y-88814361D01*
X126147292Y-88814361D02*
X126242530Y-88909600D01*
X126242530Y-88909600D02*
X126385387Y-88957219D01*
X126385387Y-88957219D02*
X126480625Y-88957219D01*
X126480625Y-88957219D02*
X126623482Y-88909600D01*
X126623482Y-88909600D02*
X126671101Y-88861980D01*
X126671101Y-88861980D02*
X126671101Y-88528647D01*
X126671101Y-88528647D02*
X126480625Y-88528647D01*
X116449673Y-94307219D02*
X116449673Y-93307219D01*
X116449673Y-93783409D02*
X117021101Y-93783409D01*
X117021101Y-94307219D02*
X117021101Y-93307219D01*
X117449673Y-94259600D02*
X117592530Y-94307219D01*
X117592530Y-94307219D02*
X117830625Y-94307219D01*
X117830625Y-94307219D02*
X117925863Y-94259600D01*
X117925863Y-94259600D02*
X117973482Y-94211980D01*
X117973482Y-94211980D02*
X118021101Y-94116742D01*
X118021101Y-94116742D02*
X118021101Y-94021504D01*
X118021101Y-94021504D02*
X117973482Y-93926266D01*
X117973482Y-93926266D02*
X117925863Y-93878647D01*
X117925863Y-93878647D02*
X117830625Y-93831028D01*
X117830625Y-93831028D02*
X117640149Y-93783409D01*
X117640149Y-93783409D02*
X117544911Y-93735790D01*
X117544911Y-93735790D02*
X117497292Y-93688171D01*
X117497292Y-93688171D02*
X117449673Y-93592933D01*
X117449673Y-93592933D02*
X117449673Y-93497695D01*
X117449673Y-93497695D02*
X117497292Y-93402457D01*
X117497292Y-93402457D02*
X117544911Y-93354838D01*
X117544911Y-93354838D02*
X117640149Y-93307219D01*
X117640149Y-93307219D02*
X117878244Y-93307219D01*
X117878244Y-93307219D02*
X118021101Y-93354838D01*
X118211578Y-94402457D02*
X118973482Y-94402457D01*
X119735387Y-93354838D02*
X119640149Y-93307219D01*
X119640149Y-93307219D02*
X119497292Y-93307219D01*
X119497292Y-93307219D02*
X119354435Y-93354838D01*
X119354435Y-93354838D02*
X119259197Y-93450076D01*
X119259197Y-93450076D02*
X119211578Y-93545314D01*
X119211578Y-93545314D02*
X119163959Y-93735790D01*
X119163959Y-93735790D02*
X119163959Y-93878647D01*
X119163959Y-93878647D02*
X119211578Y-94069123D01*
X119211578Y-94069123D02*
X119259197Y-94164361D01*
X119259197Y-94164361D02*
X119354435Y-94259600D01*
X119354435Y-94259600D02*
X119497292Y-94307219D01*
X119497292Y-94307219D02*
X119592530Y-94307219D01*
X119592530Y-94307219D02*
X119735387Y-94259600D01*
X119735387Y-94259600D02*
X119783006Y-94211980D01*
X119783006Y-94211980D02*
X119783006Y-93878647D01*
X119783006Y-93878647D02*
X119592530Y-93878647D01*
X119753482Y-95804838D02*
X119658244Y-95757219D01*
X119658244Y-95757219D02*
X119515387Y-95757219D01*
X119515387Y-95757219D02*
X119372530Y-95804838D01*
X119372530Y-95804838D02*
X119277292Y-95900076D01*
X119277292Y-95900076D02*
X119229673Y-95995314D01*
X119229673Y-95995314D02*
X119182054Y-96185790D01*
X119182054Y-96185790D02*
X119182054Y-96328647D01*
X119182054Y-96328647D02*
X119229673Y-96519123D01*
X119229673Y-96519123D02*
X119277292Y-96614361D01*
X119277292Y-96614361D02*
X119372530Y-96709600D01*
X119372530Y-96709600D02*
X119515387Y-96757219D01*
X119515387Y-96757219D02*
X119610625Y-96757219D01*
X119610625Y-96757219D02*
X119753482Y-96709600D01*
X119753482Y-96709600D02*
X119801101Y-96661980D01*
X119801101Y-96661980D02*
X119801101Y-96328647D01*
X119801101Y-96328647D02*
X119610625Y-96328647D01*
D11*
G36*
X103707855Y-99893634D02*
G01*
X103764268Y-99950048D01*
X103789619Y-100000748D01*
X103789619Y-100132207D01*
X103764268Y-100182907D01*
X103707855Y-100239321D01*
X103565896Y-100274811D01*
X103263341Y-100274811D01*
X103121381Y-100239321D01*
X103064970Y-100182910D01*
X103039619Y-100132208D01*
X103039619Y-100000748D01*
X103064970Y-99950046D01*
X103121381Y-99893635D01*
X103263341Y-99858145D01*
X103565896Y-99858145D01*
X103707855Y-99893634D01*
G37*
G36*
X103269145Y-98883495D02*
G01*
X103288077Y-98902428D01*
X103313428Y-98953129D01*
X103313428Y-99179573D01*
X103039619Y-99179573D01*
X103039619Y-98953129D01*
X103064969Y-98902427D01*
X103083902Y-98883495D01*
X103134604Y-98858145D01*
X103218444Y-98858145D01*
X103269145Y-98883495D01*
G37*
G36*
X104182476Y-102855264D02*
G01*
X102599469Y-102855264D01*
X102599469Y-102390782D01*
X102742326Y-102390782D01*
X102747987Y-102416920D01*
X102749920Y-102443601D01*
X102756286Y-102455234D01*
X102757236Y-102459619D01*
X102760445Y-102462833D01*
X102767000Y-102474812D01*
X102909857Y-102665288D01*
X102966279Y-102707446D01*
X103036538Y-102712407D01*
X103098325Y-102678597D01*
X103132025Y-102616748D01*
X103126937Y-102546499D01*
X103109857Y-102515288D01*
X103023250Y-102399812D01*
X103109857Y-102284336D01*
X103134531Y-102218366D01*
X103119621Y-102149529D01*
X103069863Y-102099680D01*
X103001052Y-102084646D01*
X102935038Y-102109200D01*
X102909857Y-102134336D01*
X102767000Y-102324812D01*
X102757630Y-102349863D01*
X102744832Y-102373352D01*
X102745483Y-102382341D01*
X102742326Y-102390782D01*
X102599469Y-102390782D01*
X102599469Y-101256954D01*
X102789619Y-101256954D01*
X102809462Y-101324534D01*
X102862692Y-101370658D01*
X102932408Y-101380682D01*
X102996477Y-101351423D01*
X103034556Y-101292171D01*
X103039619Y-101256954D01*
X103039619Y-101096240D01*
X103914619Y-101096240D01*
X103982199Y-101076397D01*
X104028323Y-101023167D01*
X104038347Y-100953451D01*
X104009088Y-100889382D01*
X103949836Y-100851303D01*
X103914619Y-100846240D01*
X103039619Y-100846240D01*
X103039619Y-100685526D01*
X103019776Y-100617946D01*
X102966546Y-100571822D01*
X102896830Y-100561798D01*
X102832761Y-100591057D01*
X102794682Y-100650309D01*
X102789619Y-100685526D01*
X102789619Y-101256954D01*
X102599469Y-101256954D01*
X102599469Y-100161716D01*
X102789619Y-100161716D01*
X102792811Y-100172588D01*
X102791595Y-100183854D01*
X102802816Y-100217618D01*
X102850434Y-100312855D01*
X102852030Y-100314570D01*
X102852528Y-100316860D01*
X102873850Y-100345342D01*
X102969088Y-100440580D01*
X102983200Y-100448286D01*
X102994221Y-100460007D01*
X103027159Y-100473460D01*
X103217635Y-100521079D01*
X103221032Y-100520940D01*
X103247952Y-100524811D01*
X103581285Y-100524811D01*
X103584548Y-100523852D01*
X103611602Y-100521079D01*
X103802078Y-100473460D01*
X103815948Y-100465322D01*
X103831667Y-100461903D01*
X103860149Y-100440581D01*
X103955388Y-100345343D01*
X103956511Y-100343286D01*
X103958525Y-100342090D01*
X103978803Y-100312856D01*
X104026422Y-100217618D01*
X104028428Y-100206467D01*
X104034556Y-100196933D01*
X104039619Y-100161716D01*
X104039619Y-99971240D01*
X104036426Y-99960367D01*
X104037643Y-99949101D01*
X104026422Y-99915338D01*
X103978803Y-99820100D01*
X103977208Y-99818385D01*
X103976710Y-99816096D01*
X103955388Y-99787613D01*
X103860149Y-99692375D01*
X103846033Y-99684667D01*
X103835015Y-99672949D01*
X103802078Y-99659496D01*
X103611602Y-99611877D01*
X103608204Y-99612015D01*
X103581285Y-99608145D01*
X103247952Y-99608145D01*
X103244689Y-99609103D01*
X103217635Y-99611877D01*
X103027159Y-99659496D01*
X103013288Y-99667633D01*
X102997570Y-99671053D01*
X102969088Y-99692376D01*
X102873850Y-99787614D01*
X102872728Y-99789668D01*
X102870712Y-99790866D01*
X102850434Y-99820101D01*
X102802816Y-99915338D01*
X102800809Y-99926488D01*
X102794682Y-99936023D01*
X102789619Y-99971240D01*
X102789619Y-100161716D01*
X102599469Y-100161716D01*
X102599469Y-99304573D01*
X102789619Y-99304573D01*
X102792189Y-99313328D01*
X102790891Y-99322362D01*
X102801957Y-99346594D01*
X102809462Y-99372153D01*
X102816358Y-99378128D01*
X102820150Y-99386431D01*
X102842562Y-99400834D01*
X102862692Y-99418277D01*
X102871724Y-99419575D01*
X102879402Y-99424510D01*
X102914619Y-99429573D01*
X103914619Y-99429573D01*
X103982199Y-99409730D01*
X104028323Y-99356500D01*
X104038347Y-99286784D01*
X104009088Y-99222715D01*
X103949836Y-99184636D01*
X103914619Y-99179573D01*
X103563428Y-99179573D01*
X103563428Y-98923621D01*
X103560235Y-98912748D01*
X103561452Y-98901482D01*
X103550231Y-98867719D01*
X103502612Y-98772481D01*
X103501017Y-98770766D01*
X103500519Y-98768477D01*
X103479197Y-98739994D01*
X103431578Y-98692376D01*
X103429523Y-98691254D01*
X103428326Y-98689238D01*
X103399091Y-98668960D01*
X103303854Y-98621342D01*
X103292703Y-98619335D01*
X103283169Y-98613208D01*
X103247952Y-98608145D01*
X103105095Y-98608145D01*
X103094222Y-98611337D01*
X103082956Y-98610121D01*
X103049193Y-98621342D01*
X102953955Y-98668961D01*
X102952240Y-98670555D01*
X102949951Y-98671054D01*
X102921468Y-98692376D01*
X102873850Y-98739995D01*
X102872728Y-98742049D01*
X102870712Y-98743247D01*
X102850434Y-98772482D01*
X102802816Y-98867719D01*
X102800809Y-98878869D01*
X102794682Y-98888404D01*
X102789619Y-98923621D01*
X102789619Y-99304573D01*
X102599469Y-99304573D01*
X102599469Y-97486019D01*
X102742326Y-97486019D01*
X102747987Y-97512157D01*
X102749920Y-97538838D01*
X102756286Y-97550471D01*
X102757236Y-97554856D01*
X102760445Y-97558070D01*
X102767000Y-97570049D01*
X102909857Y-97760525D01*
X102966279Y-97802683D01*
X103036538Y-97807644D01*
X103098325Y-97773834D01*
X103132025Y-97711985D01*
X103126937Y-97641736D01*
X103109857Y-97610525D01*
X103023250Y-97495049D01*
X103109857Y-97379573D01*
X103134531Y-97313603D01*
X103119621Y-97244766D01*
X103069863Y-97194917D01*
X103001052Y-97179883D01*
X102935038Y-97204437D01*
X102909857Y-97229573D01*
X102767000Y-97420049D01*
X102757630Y-97445100D01*
X102744832Y-97468589D01*
X102745483Y-97477578D01*
X102742326Y-97486019D01*
X102599469Y-97486019D01*
X102599469Y-97037026D01*
X104182476Y-97037026D01*
X104182476Y-102855264D01*
G37*
D12*
X130844819Y-99108094D02*
X129844819Y-99108094D01*
X129844819Y-99108094D02*
X129844819Y-98869999D01*
X129844819Y-98869999D02*
X129892438Y-98727142D01*
X129892438Y-98727142D02*
X129987676Y-98631904D01*
X129987676Y-98631904D02*
X130082914Y-98584285D01*
X130082914Y-98584285D02*
X130273390Y-98536666D01*
X130273390Y-98536666D02*
X130416247Y-98536666D01*
X130416247Y-98536666D02*
X130606723Y-98584285D01*
X130606723Y-98584285D02*
X130701961Y-98631904D01*
X130701961Y-98631904D02*
X130797200Y-98727142D01*
X130797200Y-98727142D02*
X130844819Y-98869999D01*
X130844819Y-98869999D02*
X130844819Y-99108094D01*
X130844819Y-97584285D02*
X130844819Y-98155713D01*
X130844819Y-97869999D02*
X129844819Y-97869999D01*
X129844819Y-97869999D02*
X129987676Y-97965237D01*
X129987676Y-97965237D02*
X130082914Y-98060475D01*
X130082914Y-98060475D02*
X130130533Y-98155713D01*
X131094819Y-107456666D02*
X130618628Y-107789999D01*
X131094819Y-108028094D02*
X130094819Y-108028094D01*
X130094819Y-108028094D02*
X130094819Y-107647142D01*
X130094819Y-107647142D02*
X130142438Y-107551904D01*
X130142438Y-107551904D02*
X130190057Y-107504285D01*
X130190057Y-107504285D02*
X130285295Y-107456666D01*
X130285295Y-107456666D02*
X130428152Y-107456666D01*
X130428152Y-107456666D02*
X130523390Y-107504285D01*
X130523390Y-107504285D02*
X130571009Y-107551904D01*
X130571009Y-107551904D02*
X130618628Y-107647142D01*
X130618628Y-107647142D02*
X130618628Y-108028094D01*
X131094819Y-106504285D02*
X131094819Y-107075713D01*
X131094819Y-106789999D02*
X130094819Y-106789999D01*
X130094819Y-106789999D02*
X130237676Y-106885237D01*
X130237676Y-106885237D02*
X130332914Y-106980475D01*
X130332914Y-106980475D02*
X130380533Y-107075713D01*
D13*
X131510000Y-99605000D02*
X129590000Y-99605000D01*
X129590000Y-99605000D02*
X129590000Y-102290000D01*
X131510000Y-102290000D02*
X131510000Y-99605000D01*
X125560000Y-112740000D02*
X124230000Y-112740000D01*
X125560000Y-111410000D02*
X125560000Y-112740000D01*
X125560000Y-110140000D02*
X125560000Y-87220000D01*
X125560000Y-110140000D02*
X122960000Y-110140000D01*
X125560000Y-87220000D02*
X120360000Y-87220000D01*
X122960000Y-112740000D02*
X120360000Y-112740000D01*
X122960000Y-110140000D02*
X122960000Y-112740000D01*
X120360000Y-112740000D02*
X120360000Y-87220000D01*
X130790000Y-95090000D02*
X130190000Y-95090000D01*
X129490000Y-94390000D02*
X129490000Y-92990000D01*
X131490000Y-92990000D02*
X131490000Y-94390000D01*
X130190000Y-92290000D02*
X130790000Y-92290000D01*
X129490000Y-94390000D02*
G75*
G03*
X130190000Y-95090000I699999J-1D01*
G01*
X130790000Y-95090000D02*
G75*
G03*
X131490000Y-94390000I1J699999D01*
G01*
X130190000Y-92290000D02*
G75*
G03*
X129490000Y-92990000I0J-700000D01*
G01*
X131490000Y-92990000D02*
G75*
G03*
X130790000Y-92290000I-700000J0D01*
G01*
X130067500Y-104917258D02*
X130067500Y-104442742D01*
X131112500Y-104917258D02*
X131112500Y-104442742D01*
%LPC*%
D14*
X100500000Y-96600000D03*
D15*
X100900000Y-97400000D03*
X100900000Y-98200000D03*
D14*
X100500000Y-99000000D03*
D15*
X100900000Y-99800000D03*
X100900000Y-100600000D03*
D14*
X100500000Y-101400000D03*
D15*
X100900000Y-102200000D03*
X100900000Y-103000000D03*
D14*
X100500000Y-103800000D03*
D16*
X130550000Y-100352500D03*
X130550000Y-102227500D03*
D17*
X110850000Y-87500000D03*
X111333274Y-86333274D03*
X111333274Y-88666726D03*
X112500000Y-85850000D03*
D18*
X112500000Y-87500000D03*
D17*
X112500000Y-89150000D03*
X113666726Y-86333274D03*
X113666726Y-88666726D03*
X114150000Y-87500000D03*
D19*
X124230000Y-111410000D03*
D20*
X121690000Y-111410000D03*
X124230000Y-108870000D03*
X121690000Y-108870000D03*
X124230000Y-106330000D03*
X121690000Y-106330000D03*
X124230000Y-103790000D03*
X121690000Y-103790000D03*
X124230000Y-101250000D03*
X121690000Y-101250000D03*
X124230000Y-98710000D03*
X121690000Y-98710000D03*
X124230000Y-96170000D03*
X121690000Y-96170000D03*
X124230000Y-93630000D03*
X121690000Y-93630000D03*
X124230000Y-91090000D03*
X121690000Y-91090000D03*
X124230000Y-88550000D03*
X121690000Y-88550000D03*
D21*
X130490000Y-94340000D03*
D22*
X130490000Y-93040000D03*
D23*
X130590000Y-105505000D03*
X130590000Y-103855000D03*
D17*
X110850000Y-112500000D03*
X111333274Y-111333274D03*
X111333274Y-113666726D03*
X112500000Y-110850000D03*
D18*
X112500000Y-112500000D03*
D17*
X112500000Y-114150000D03*
X113666726Y-111333274D03*
X113666726Y-113666726D03*
X114150000Y-112500000D03*
%LPD*%
M02*
